<svg width="279" height="330" fill="none" xmlns="http://www.w3.org/2000/svg"><mask id="b" maskUnits="userSpaceOnUse" x=".02" y=".84" width="279" height="329" fill="#000"><path fill="#fff" d="M.02.84h279v329H.02z"/><path d="M134.68 69h-11.36V40.68c0-1.17-.21-2.35-.64-3.52a8 8 0 0 0-1.84-3.2 9.2 9.2 0 0 0-3.12-2.24c-1.23-.59-2.7-.88-4.4-.88-1.23 0-2.43.24-3.6.72a9 9 0 0 0-3.12 1.92c-.9.8-1.63 1.79-2.16 2.96a9.37 9.37 0 0 0-.8 3.92V69H91.88V21.48h11.68v8.8c.21-1.23.77-2.4 1.68-3.52.9-1.17 2.03-2.19 3.36-3.04 1.39-.9 2.88-1.6 4.48-2.08a17.27 17.27 0 0 1 11.44.4 14.8 14.8 0 0 1 5.28 3.52c1.5 1.5 2.66 3.36 3.52 5.6.9 2.19 1.36 4.72 1.36 7.6V69ZM165.37 20.84c3.73 0 7.04.64 9.92 1.92a20.84 20.84 0 0 1 7.28 5.28 21.97 21.97 0 0 1 4.48 7.76 27.43 27.43 0 0 1 1.6 9.44c0 3.47-.59 6.7-1.76 9.68a22.66 22.66 0 0 1-4.8 7.76 21.25 21.25 0 0 1-7.36 5.12 23.27 23.27 0 0 1-9.36 1.84c-3.57 0-6.8-.61-9.68-1.84a21.42 21.42 0 0 1-7.28-5.12 23.31 23.31 0 0 1-4.72-7.76 28.57 28.57 0 0 1-1.6-9.68c0-3.36.56-6.5 1.68-9.44a23.31 23.31 0 0 1 4.72-7.76c2.03-2.24 4.48-4 7.36-5.28a23.18 23.18 0 0 1 9.52-1.92Zm0 39.92a11.15 11.15 0 0 0 9.12-4.48 15.6 15.6 0 0 0 2.48-4.88 21 21 0 0 0 .88-6.16c0-2.13-.26-4.13-.8-6a14.42 14.42 0 0 0-2.4-4.88 10.59 10.59 0 0 0-3.84-3.36c-1.55-.8-3.36-1.2-5.44-1.2-2.19 0-4.05.4-5.6 1.2-1.55.8-2.85 1.92-3.92 3.36a14.14 14.14 0 0 0-2.24 4.88 24.03 24.03 0 0 0-.72 6c0 2.24.27 4.32.8 6.24.59 1.87 1.39 3.5 2.4 4.88a11.62 11.62 0 0 0 3.92 3.28c1.55.75 3.34 1.12 5.36 1.12ZM49.54 138.84v8.24c-.9.64-1.92 1.15-3.04 1.52a24.81 24.81 0 0 1-6.4 1.04c-1.81 0-3.41-.19-4.8-.56-1.33-.37-2.5-.85-3.52-1.44a10.49 10.49 0 0 1-2.4-2.16 14 14 0 0 1-1.6-2.48 15.4 15.4 0 0 1-1.52-6.64v-26.24h-6.24v-6.88c.75-.1 1.52-.27 2.32-.48.8-.27 1.63-.67 2.48-1.2 1.44-.9 2.59-2 3.44-3.28.85-1.28 1.5-2.5 1.92-3.68.48-1.23.77-2.3.88-3.2.16-.96.24-1.57.24-1.84h6.56c.05 2.08.08 4.19.08 6.32 0 2.08.03 4.16.08 6.24h11.04v8H38.1c.16 14.56.24 23.12.24 25.68 0 .32.05.8.16 1.44.1.64.43 1.23.96 1.76a3.56 3.56 0 0 0 2.32 1.12 14.46 14.46 0 0 0 5.68-.56l2.08-.72ZM100.82 149H89.46v-28.32c0-1.17-.21-2.35-.64-3.52a8.61 8.61 0 0 0-4.88-5.36c-1.23-.59-2.7-.88-4.4-.88-1.28 0-2.5.24-3.68.72a9.66 9.66 0 0 0-3.12 1.84c-.9.8-1.63 1.79-2.16 2.96a9.36 9.36 0 0 0-.8 3.92V149H58.1V85.4h11.68v24.96c.21-1.23.77-2.4 1.68-3.52.9-1.17 2.03-2.19 3.36-3.04 1.39-.9 2.88-1.6 4.48-2.08a16.66 16.66 0 0 1 11.36.4 14.8 14.8 0 0 1 5.28 3.52c1.5 1.5 2.67 3.36 3.52 5.6a19.5 19.5 0 0 1 1.36 7.52V149ZM125.75 81.96v10.56h-13.68V81.96h13.68ZM124.7 149h-11.6v-47.12h11.6V149ZM180.88 149h-11.36v-28.32c0-1.17-.21-2.35-.64-3.52a8.01 8.01 0 0 0-1.84-3.2 9.2 9.2 0 0 0-3.12-2.24c-1.23-.59-2.7-.88-4.4-.88-1.23 0-2.43.24-3.6.72a8.98 8.98 0 0 0-3.12 1.92c-.9.8-1.63 1.79-2.16 2.96a9.35 9.35 0 0 0-.8 3.92V149h-11.76v-47.52h11.68v8.8c.21-1.23.77-2.4 1.68-3.52.9-1.17 2.03-2.19 3.36-3.04 1.39-.9 2.88-1.6 4.48-2.08a17.27 17.27 0 0 1 11.44.4c2.03.8 3.79 1.97 5.28 3.52a15.7 15.7 0 0 1 3.52 5.6c.9 2.19 1.36 4.72 1.36 7.6V149ZM224.47 149l-14.16-20.08-6.24 6.48V149H192.3V85.4h11.76v37.28l19.12-21.2h13.44l-19.2 21.04L237.9 149h-13.44ZM258.13 149h-10v-11.36h10V149ZM81.65 172.44H67.97v-10.56h13.68v10.56Zm-1.04 59.68c0 2.5-.48 4.72-1.44 6.64-.42.85-.98 1.68-1.68 2.48-.64.8-1.46 1.5-2.48 2.08-.96.64-2.13 1.15-3.52 1.52-1.38.37-2.98.56-4.8.56a21.73 21.73 0 0 1-3.12-.4c-.9-.16-1.92-.43-3.04-.8a12.92 12.92 0 0 1-3.04-1.36v-8.24c.91.37 1.82.72 2.72 1.04.91.37 1.9.56 2.96.56.91 0 1.74-.1 2.48-.32a3.36 3.36 0 0 0 1.76-1.12c.59-.59.91-1.23.96-1.92.11-.64.16-1.1.16-1.36v-5.52a5413.94 5413.94 0 0 0 .48-44.48h11.6v50.64ZM92.12 181.48h11.36v28.4c0 1.23.19 2.43.56 3.6a10.91 10.91 0 0 0 1.84 3.12c.8.9 1.82 1.65 3.04 2.24a11 11 0 0 0 4.4.8c1.28 0 2.48-.21 3.6-.64a10.94 10.94 0 0 0 3.12-1.92 8.7 8.7 0 0 0 2.16-2.96c.54-1.17.8-2.48.8-3.92v-28.72h11.68V229h-11.6v-8.8a8.2 8.2 0 0 1-1.68 3.6 15.5 15.5 0 0 1-3.36 3.04 19.22 19.22 0 0 1-4.48 2.08 17.72 17.72 0 0 1-11.36-.48c-1.97-.8-3.7-1.95-5.2-3.44a17.74 17.74 0 0 1-3.6-5.6 21.22 21.22 0 0 1-1.28-7.6v-30.32ZM185.75 215.24c0 2.3-.54 4.35-1.6 6.16a13.3 13.3 0 0 1-4.32 4.48 21.48 21.48 0 0 1-6.64 2.8c-2.51.64-5.23.96-8.16.96-3.36 0-6.38-.48-9.04-1.44a23.56 23.56 0 0 1-6.8-3.68 18.19 18.19 0 0 1-4.4-4.96 14.1 14.1 0 0 1-1.76-5.44l11.04-1.28c0 1.12.32 2.16.96 3.12.64.9 1.46 1.7 2.48 2.4 1 .7 2.16 1.25 3.44 1.68 1.33.37 2.66.56 4 .56 1.28 0 2.5-.13 3.68-.4a11.3 11.3 0 0 0 3.04-1.12c.9-.48 1.6-1.07 2.08-1.76.53-.7.8-1.5.8-2.4 0-1.39-.72-2.48-2.16-3.28-1.44-.8-3.26-1.5-5.44-2.08a124.5 124.5 0 0 0-7.12-1.84 36.7 36.7 0 0 1-7.04-2.56c-2.2-1.07-4-2.45-5.44-4.16-1.44-1.7-2.16-3.95-2.16-6.72 0-1.76.4-3.44 1.2-5.04.8-1.6 2-3.01 3.6-4.24a19 19 0 0 1 6.16-3.04 30.1 30.1 0 0 1 8.72-1.12c3.36 0 6.26.48 8.72 1.44 2.5.9 4.58 2.08 6.24 3.52 1.7 1.39 2.98 2.9 3.84 4.56.85 1.65 1.36 3.2 1.52 4.64l-10.56 1.28c0-.75-.24-1.55-.72-2.4a7.62 7.62 0 0 0-1.92-2.48 9.44 9.44 0 0 0-3.04-1.84c-1.23-.53-2.62-.8-4.16-.8-2.35 0-4.3.48-5.84 1.44-1.5.96-2.24 2.21-2.24 3.76 0 1.44.72 2.56 2.16 3.36 1.44.8 3.22 1.52 5.36 2.16 2.13.59 4.45 1.2 6.96 1.84 2.56.64 4.9 1.52 7.04 2.64a15.74 15.74 0 0 1 5.36 4.32c1.44 1.76 2.16 4.08 2.16 6.96ZM219.62 218.84v8.24c-.9.64-1.92 1.15-3.04 1.52a24.82 24.82 0 0 1-6.4 1.04c-1.81 0-3.41-.19-4.8-.56-1.33-.37-2.5-.85-3.52-1.44a10.49 10.49 0 0 1-2.4-2.16c-.64-.8-1.17-1.63-1.6-2.48a15.42 15.42 0 0 1-1.52-6.64v-26.24h-6.24v-6.88c.75-.1 1.52-.27 2.32-.48.8-.27 1.63-.67 2.48-1.2 1.44-.9 2.59-2 3.44-3.28.85-1.28 1.5-2.5 1.92-3.68.48-1.23.78-2.3.88-3.2.16-.96.24-1.57.24-1.84h6.56c.05 2.08.08 4.19.08 6.32 0 2.08.03 4.16.08 6.24h11.04v8h-10.96c.16 14.56.24 23.12.24 25.68 0 .32.05.8.16 1.44.1.64.43 1.23.96 1.76a3.56 3.56 0 0 0 2.32 1.12 14.44 14.44 0 0 0 5.68-.56l2.08-.72ZM53.63 300.68c3.36 0 6.08-1.04 8.16-3.12a16.05 16.05 0 0 0 4.16-8l9.44 1.04a27.63 27.63 0 0 1-2.48 7.6 19.28 19.28 0 0 1-4.56 6 20.86 20.86 0 0 1-6.72 3.92 25.21 25.21 0 0 1-8.88 1.44c-3.47 0-6.64-.61-9.52-1.84a22.3 22.3 0 0 1-7.36-5.12 24.64 24.64 0 0 1-4.8-7.68 27.35 27.35 0 0 1-1.68-9.68c0-3.36.56-6.53 1.68-9.52a23.69 23.69 0 0 1 4.88-7.76 23.32 23.32 0 0 1 7.36-5.2 22.98 22.98 0 0 1 9.44-1.92c3.14 0 6 .5 8.56 1.52a20.66 20.66 0 0 1 6.8 4.24 20.9 20.9 0 0 1 4.8 6.32 24.2 24.2 0 0 1 2.56 7.84l-9.36.88c-.54-3.57-1.87-6.45-4-8.64-2.14-2.19-4.96-3.28-8.48-3.28-2.2 0-4.08.4-5.68 1.2-1.6.75-2.96 1.81-4.08 3.2a14.4 14.4 0 0 0-2.4 4.88c-.54 1.87-.8 3.92-.8 6.16 0 2.19.29 4.24.88 6.16.58 1.87 1.44 3.5 2.56 4.88a12.19 12.19 0 0 0 4.08 3.28 12 12 0 0 0 5.44 1.2ZM95.18 299a3.56 3.56 0 0 0 2.32 1.12 14.44 14.44 0 0 0 5.68-.56l2.08-.72v8.24c-.9.64-1.89 1.15-2.96 1.52a24.79 24.79 0 0 1-6.4 1.04c-1.8 0-3.4-.19-4.8-.56-1.33-.37-2.5-.85-3.52-1.44a12.24 12.24 0 0 1-2.48-2.16 14 14 0 0 1-1.6-2.48 15.41 15.41 0 0 1-1.52-6.64V245.4h11.84v7.84c.06 3.15.08 6.53.08 10.16.06 3.57.08 7.2.08 10.88.06 3.68.08 7.07.08 10.16v11.36c0 .32.06.8.16 1.44.11.64.43 1.23.96 1.76ZM124.46 241.96v10.56h-13.68v-10.56h13.68ZM123.42 309h-11.6v-47.12h11.6V309ZM155.32 300.68c3.36 0 6.08-1.04 8.16-3.12a16.04 16.04 0 0 0 4.16-8l9.44 1.04a27.61 27.61 0 0 1-2.48 7.6 19.28 19.28 0 0 1-4.56 6 20.85 20.85 0 0 1-6.72 3.92 25.21 25.21 0 0 1-8.88 1.44c-3.47 0-6.64-.61-9.52-1.84a22.3 22.3 0 0 1-7.36-5.12 24.66 24.66 0 0 1-4.8-7.68 27.35 27.35 0 0 1-1.68-9.68c0-3.36.56-6.53 1.68-9.52a23.7 23.7 0 0 1 4.88-7.76 23.33 23.33 0 0 1 7.36-5.2 22.98 22.98 0 0 1 9.44-1.92c3.14 0 6 .5 8.56 1.52a20.67 20.67 0 0 1 6.8 4.24 20.88 20.88 0 0 1 4.8 6.32 24.18 24.18 0 0 1 2.56 7.84l-9.36.88c-.54-3.57-1.87-6.45-4-8.64-2.14-2.19-4.96-3.28-8.48-3.28-2.19 0-4.08.4-5.68 1.2-1.6.75-2.96 1.81-4.08 3.2a14.42 14.42 0 0 0-2.4 4.88c-.54 1.87-.8 3.92-.8 6.16a21 21 0 0 0 .88 6.16c.58 1.87 1.44 3.5 2.56 4.88a12.19 12.19 0 0 0 4.08 3.28 12 12 0 0 0 5.44 1.2ZM216.3 309l-14.16-20.08-6.24 6.48V309h-11.76v-63.6h11.76v37.28l19.12-21.2h13.44l-19.2 21.04L229.74 309H216.3ZM249.97 309h-10v-11.36h10V309Z"/><path d="M170 45.5c0 3.04-2.01 5.5-4.5 5.5s-4.5-2.46-4.5-5.5 2.01-5.5 4.5-5.5 4.5 2.46 4.5 5.5Z"/></mask><path d="M134.68 69h-11.36V40.68c0-1.17-.21-2.35-.64-3.52a8 8 0 0 0-1.84-3.2 9.2 9.2 0 0 0-3.12-2.24c-1.23-.59-2.7-.88-4.4-.88-1.23 0-2.43.24-3.6.72a9 9 0 0 0-3.12 1.92c-.9.8-1.63 1.79-2.16 2.96a9.37 9.37 0 0 0-.8 3.92V69H91.88V21.48h11.68v8.8c.21-1.23.77-2.4 1.68-3.52.9-1.17 2.03-2.19 3.36-3.04 1.39-.9 2.88-1.6 4.48-2.08a17.27 17.27 0 0 1 11.44.4 14.8 14.8 0 0 1 5.28 3.52c1.5 1.5 2.66 3.36 3.52 5.6.9 2.19 1.36 4.72 1.36 7.6V69ZM165.37 20.84c3.73 0 7.04.64 9.92 1.92a20.84 20.84 0 0 1 7.28 5.28 21.97 21.97 0 0 1 4.48 7.76 27.43 27.43 0 0 1 1.6 9.44c0 3.47-.59 6.7-1.76 9.68a22.66 22.66 0 0 1-4.8 7.76 21.25 21.25 0 0 1-7.36 5.12 23.27 23.27 0 0 1-9.36 1.84c-3.57 0-6.8-.61-9.68-1.84a21.42 21.42 0 0 1-7.28-5.12 23.31 23.31 0 0 1-4.72-7.76 28.57 28.57 0 0 1-1.6-9.68c0-3.36.56-6.5 1.68-9.44a23.31 23.31 0 0 1 4.72-7.76c2.03-2.24 4.48-4 7.36-5.28a23.18 23.18 0 0 1 9.52-1.92Zm0 39.92a11.15 11.15 0 0 0 9.12-4.48 15.6 15.6 0 0 0 2.48-4.88 21 21 0 0 0 .88-6.16c0-2.13-.26-4.13-.8-6a14.42 14.42 0 0 0-2.4-4.88 10.59 10.59 0 0 0-3.84-3.36c-1.55-.8-3.36-1.2-5.44-1.2-2.19 0-4.05.4-5.6 1.2-1.55.8-2.85 1.92-3.92 3.36a14.14 14.14 0 0 0-2.24 4.88 24.03 24.03 0 0 0-.72 6c0 2.24.27 4.32.8 6.24.59 1.87 1.39 3.5 2.4 4.88a11.62 11.62 0 0 0 3.92 3.28c1.55.75 3.34 1.12 5.36 1.12ZM49.54 138.84v8.24c-.9.64-1.92 1.15-3.04 1.52a24.81 24.81 0 0 1-6.4 1.04c-1.81 0-3.41-.19-4.8-.56-1.33-.37-2.5-.85-3.52-1.44a10.49 10.49 0 0 1-2.4-2.16 14 14 0 0 1-1.6-2.48 15.4 15.4 0 0 1-1.52-6.64v-26.24h-6.24v-6.88c.75-.1 1.52-.27 2.32-.48.8-.27 1.63-.67 2.48-1.2 1.44-.9 2.59-2 3.44-3.28.85-1.28 1.5-2.5 1.92-3.68.48-1.23.77-2.3.88-3.2.16-.96.24-1.57.24-1.84h6.56c.05 2.08.08 4.19.08 6.32 0 2.08.03 4.16.08 6.24h11.04v8H38.1c.16 14.56.24 23.12.24 25.68 0 .32.05.8.16 1.44.1.64.43 1.23.96 1.76a3.56 3.56 0 0 0 2.32 1.12 14.46 14.46 0 0 0 5.68-.56l2.08-.72ZM100.82 149H89.46v-28.32c0-1.17-.21-2.35-.64-3.52a8.61 8.61 0 0 0-4.88-5.36c-1.23-.59-2.7-.88-4.4-.88-1.28 0-2.5.24-3.68.72a9.66 9.66 0 0 0-3.12 1.84c-.9.8-1.63 1.79-2.16 2.96a9.36 9.36 0 0 0-.8 3.92V149H58.1V85.4h11.68v24.96c.21-1.23.77-2.4 1.68-3.52.9-1.17 2.03-2.19 3.36-3.04 1.39-.9 2.88-1.6 4.48-2.08a16.66 16.66 0 0 1 11.36.4 14.8 14.8 0 0 1 5.28 3.52c1.5 1.5 2.67 3.36 3.52 5.6a19.5 19.5 0 0 1 1.36 7.52V149ZM125.75 81.96v10.56h-13.68V81.96h13.68ZM124.7 149h-11.6v-47.12h11.6V149ZM180.88 149h-11.36v-28.32c0-1.17-.21-2.35-.64-3.52a8.01 8.01 0 0 0-1.84-3.2 9.2 9.2 0 0 0-3.12-2.24c-1.23-.59-2.7-.88-4.4-.88-1.23 0-2.43.24-3.6.72a8.98 8.98 0 0 0-3.12 1.92c-.9.8-1.63 1.79-2.16 2.96a9.35 9.35 0 0 0-.8 3.92V149h-11.76v-47.52h11.68v8.8c.21-1.23.77-2.4 1.68-3.52.9-1.17 2.03-2.19 3.36-3.04 1.39-.9 2.88-1.6 4.48-2.08a17.27 17.27 0 0 1 11.44.4c2.03.8 3.79 1.97 5.28 3.52a15.7 15.7 0 0 1 3.52 5.6c.9 2.19 1.36 4.72 1.36 7.6V149ZM224.47 149l-14.16-20.08-6.24 6.48V149H192.3V85.4h11.76v37.28l19.12-21.2h13.44l-19.2 21.04L237.9 149h-13.44ZM258.13 149h-10v-11.36h10V149ZM81.65 172.44H67.97v-10.56h13.68v10.56Zm-1.04 59.68c0 2.5-.48 4.72-1.44 6.64-.42.85-.98 1.68-1.68 2.48-.64.8-1.46 1.5-2.48 2.08-.96.64-2.13 1.15-3.52 1.52-1.38.37-2.98.56-4.8.56a21.73 21.73 0 0 1-3.12-.4c-.9-.16-1.92-.43-3.04-.8a12.92 12.92 0 0 1-3.04-1.36v-8.24c.91.37 1.82.72 2.72 1.04.91.37 1.9.56 2.96.56.91 0 1.74-.1 2.48-.32a3.36 3.36 0 0 0 1.76-1.12c.59-.59.91-1.23.96-1.92.11-.64.16-1.1.16-1.36v-5.52a5413.94 5413.94 0 0 0 .48-44.48h11.6v50.64ZM92.12 181.48h11.36v28.4c0 1.23.19 2.43.56 3.6a10.91 10.91 0 0 0 1.84 3.12c.8.9 1.82 1.65 3.04 2.24a11 11 0 0 0 4.4.8c1.28 0 2.48-.21 3.6-.64a10.94 10.94 0 0 0 3.12-1.92 8.7 8.7 0 0 0 2.16-2.96c.54-1.17.8-2.48.8-3.92v-28.72h11.68V229h-11.6v-8.8a8.2 8.2 0 0 1-1.68 3.6 15.5 15.5 0 0 1-3.36 3.04 19.22 19.22 0 0 1-4.48 2.08 17.72 17.72 0 0 1-11.36-.48c-1.97-.8-3.7-1.95-5.2-3.44a17.74 17.74 0 0 1-3.6-5.6 21.22 21.22 0 0 1-1.28-7.6v-30.32ZM185.75 215.24c0 2.3-.54 4.35-1.6 6.16a13.3 13.3 0 0 1-4.32 4.48 21.48 21.48 0 0 1-6.64 2.8c-2.51.64-5.23.96-8.16.96-3.36 0-6.38-.48-9.04-1.44a23.56 23.56 0 0 1-6.8-3.68 18.19 18.19 0 0 1-4.4-4.96 14.1 14.1 0 0 1-1.76-5.44l11.04-1.28c0 1.12.32 2.16.96 3.12.64.9 1.46 1.7 2.48 2.4 1 .7 2.16 1.25 3.44 1.68 1.33.37 2.66.56 4 .56 1.28 0 2.5-.13 3.68-.4a11.3 11.3 0 0 0 3.04-1.12c.9-.48 1.6-1.07 2.08-1.76.53-.7.8-1.5.8-2.4 0-1.39-.72-2.48-2.16-3.28-1.44-.8-3.26-1.5-5.44-2.08a124.5 124.5 0 0 0-7.12-1.84 36.7 36.7 0 0 1-7.04-2.56c-2.2-1.07-4-2.45-5.44-4.16-1.44-1.7-2.16-3.95-2.16-6.72 0-1.76.4-3.44 1.2-5.04.8-1.6 2-3.01 3.6-4.24a19 19 0 0 1 6.16-3.04 30.1 30.1 0 0 1 8.72-1.12c3.36 0 6.26.48 8.72 1.44 2.5.9 4.58 2.08 6.24 3.52 1.7 1.39 2.98 2.9 3.84 4.56.85 1.65 1.36 3.2 1.52 4.64l-10.56 1.28c0-.75-.24-1.55-.72-2.4a7.62 7.62 0 0 0-1.92-2.48 9.44 9.44 0 0 0-3.04-1.84c-1.23-.53-2.62-.8-4.16-.8-2.35 0-4.3.48-5.84 1.44-1.5.96-2.24 2.21-2.24 3.76 0 1.44.72 2.56 2.16 3.36 1.44.8 3.22 1.52 5.36 2.16 2.13.59 4.45 1.2 6.96 1.84 2.56.64 4.9 1.52 7.04 2.64a15.74 15.74 0 0 1 5.36 4.32c1.44 1.76 2.16 4.08 2.16 6.96ZM219.62 218.84v8.24c-.9.64-1.92 1.15-3.04 1.52a24.82 24.82 0 0 1-6.4 1.04c-1.81 0-3.41-.19-4.8-.56-1.33-.37-2.5-.85-3.52-1.44a10.49 10.49 0 0 1-2.4-2.16c-.64-.8-1.17-1.63-1.6-2.48a15.42 15.42 0 0 1-1.52-6.64v-26.24h-6.24v-6.88c.75-.1 1.52-.27 2.32-.48.8-.27 1.63-.67 2.48-1.2 1.44-.9 2.59-2 3.44-3.28.85-1.28 1.5-2.5 1.92-3.68.48-1.23.78-2.3.88-3.2.16-.96.24-1.57.24-1.84h6.56c.05 2.08.08 4.19.08 6.32 0 2.08.03 4.16.08 6.24h11.04v8h-10.96c.16 14.56.24 23.12.24 25.68 0 .32.05.8.16 1.44.1.64.43 1.23.96 1.76a3.56 3.56 0 0 0 2.32 1.12 14.44 14.44 0 0 0 5.68-.56l2.08-.72ZM53.63 300.68c3.36 0 6.08-1.04 8.16-3.12a16.05 16.05 0 0 0 4.16-8l9.44 1.04a27.63 27.63 0 0 1-2.48 7.6 19.28 19.28 0 0 1-4.56 6 20.86 20.86 0 0 1-6.72 3.92 25.21 25.21 0 0 1-8.88 1.44c-3.47 0-6.64-.61-9.52-1.84a22.3 22.3 0 0 1-7.36-5.12 24.64 24.64 0 0 1-4.8-7.68 27.35 27.35 0 0 1-1.68-9.68c0-3.36.56-6.53 1.68-9.52a23.69 23.69 0 0 1 4.88-7.76 23.32 23.32 0 0 1 7.36-5.2 22.98 22.98 0 0 1 9.44-1.92c3.14 0 6 .5 8.56 1.52a20.66 20.66 0 0 1 6.8 4.24 20.9 20.9 0 0 1 4.8 6.32 24.2 24.2 0 0 1 2.56 7.84l-9.36.88c-.54-3.57-1.87-6.45-4-8.64-2.14-2.19-4.96-3.28-8.48-3.28-2.2 0-4.08.4-5.68 1.2-1.6.75-2.96 1.81-4.08 3.2a14.4 14.4 0 0 0-2.4 4.88c-.54 1.87-.8 3.92-.8 6.16 0 2.19.29 4.24.88 6.16.58 1.87 1.44 3.5 2.56 4.88a12.19 12.19 0 0 0 4.08 3.28 12 12 0 0 0 5.44 1.2ZM95.18 299a3.56 3.56 0 0 0 2.32 1.12 14.44 14.44 0 0 0 5.68-.56l2.08-.72v8.24c-.9.64-1.89 1.15-2.96 1.52a24.79 24.79 0 0 1-6.4 1.04c-1.8 0-3.4-.19-4.8-.56-1.33-.37-2.5-.85-3.52-1.44a12.24 12.24 0 0 1-2.48-2.16 14 14 0 0 1-1.6-2.48 15.41 15.41 0 0 1-1.52-6.64V245.4h11.84v7.84c.06 3.15.08 6.53.08 10.16.06 3.57.08 7.2.08 10.88.06 3.68.08 7.07.08 10.16v11.36c0 .32.06.8.16 1.44.11.64.43 1.23.96 1.76ZM124.46 241.96v10.56h-13.68v-10.56h13.68ZM123.42 309h-11.6v-47.12h11.6V309ZM155.32 300.68c3.36 0 6.08-1.04 8.16-3.12a16.04 16.04 0 0 0 4.16-8l9.44 1.04a27.61 27.61 0 0 1-2.48 7.6 19.28 19.28 0 0 1-4.56 6 20.85 20.85 0 0 1-6.72 3.92 25.21 25.21 0 0 1-8.88 1.44c-3.47 0-6.64-.61-9.52-1.84a22.3 22.3 0 0 1-7.36-5.12 24.66 24.66 0 0 1-4.8-7.68 27.35 27.35 0 0 1-1.68-9.68c0-3.36.56-6.53 1.68-9.52a23.7 23.7 0 0 1 4.88-7.76 23.33 23.33 0 0 1 7.36-5.2 22.98 22.98 0 0 1 9.44-1.92c3.14 0 6 .5 8.56 1.52a20.67 20.67 0 0 1 6.8 4.24 20.88 20.88 0 0 1 4.8 6.32 24.18 24.18 0 0 1 2.56 7.84l-9.36.88c-.54-3.57-1.87-6.45-4-8.64-2.14-2.19-4.96-3.28-8.48-3.28-2.19 0-4.08.4-5.68 1.2-1.6.75-2.96 1.81-4.08 3.2a14.42 14.42 0 0 0-2.4 4.88c-.54 1.87-.8 3.92-.8 6.16a21 21 0 0 0 .88 6.16c.58 1.87 1.44 3.5 2.56 4.88a12.19 12.19 0 0 0 4.08 3.28 12 12 0 0 0 5.44 1.2ZM216.3 309l-14.16-20.08-6.24 6.48V309h-11.76v-63.6h11.76v37.28l19.12-21.2h13.44l-19.2 21.04L229.74 309H216.3ZM249.97 309h-10v-11.36h10V309Z" fill="#fff"/><path d="M170 45.5c0 3.04-2.01 5.5-4.5 5.5s-4.5-2.46-4.5-5.5 2.01-5.5 4.5-5.5 4.5 2.46 4.5 5.5Z" fill="#fff"/><path d="M134.68 69v20a20 20 0 0 0 20-20h-20Zm-11.36 0h-20a20 20 0 0 0 20 20V69Zm-.64-31.84-19.14 5.82c.1.34.22.68.34 1.01l18.8-6.83Zm-1.84-3.2-15 13.23.43.48 14.57-13.71Zm-3.12-2.24-8.63 18.04.3.14 8.33-18.18Zm-8-.16 6.83 18.8.74-.29-7.57-18.51Zm-3.12 1.92 13.23 15 .48-.44-13.71-14.56Zm-2.16 2.96 18.2 8.28-18.2-8.28Zm-.8 32.56v20a20 20 0 0 0 20-20h-20Zm-11.76 0h-20a20 20 0 0 0 20 20V69Zm0-47.52v-20a20 20 0 0 0-20 20h20Zm11.68 0h20a20 20 0 0 0-20-20v20Zm0 8.8h-20a20 20 0 0 0 39.7 3.43l-19.7-3.43Zm1.68-3.52 15.54 12.58c.1-.11.2-.23.28-.35l-15.82-12.23Zm3.36-3.04 10.78 16.85.16-.11-10.94-16.74Zm4.48-2.08 5.75 19.16.39-.13-6.14-19.03Zm11.44.4-7.34 18.6 7.34-18.6Zm5.28 3.52-14.39 13.9.25.24 14.14-14.14Zm3.52 5.6-18.7 7.12.22.54 18.48-7.66Zm41.97-8.4-8.12 18.28 8.12-18.28Zm7.28 5.28-15 13.22.15.18 14.85-13.4Zm4.48 7.76-18.94 6.43.15.4 18.8-6.83Zm-.16 19.12-18.61-7.31-.12.29 18.73 7.02Zm-4.8 7.76L167.6 48.9l-.18.18 14.67 13.6Zm-7.36 5.12-7.83-18.4a9.2 9.2 0 0 0-.13.05l7.96 18.35Zm-19.04 0-7.96 18.35.13.05 7.83-18.4Zm-7.28-5.12 14.67-13.6-14.67 13.6Zm-4.72-7.76-18.83 6.73.1.3 18.73-7.03Zm.08-19.12 18.69 7.13.04-.1-18.73-7.03Zm4.72-7.76 14.67 13.6.16-.18-14.83-13.42Zm7.36-5.28 8.13 18.28-8.13-18.28Zm14.72 36.8-9.19-17.76 9.2 17.76Zm3.92-3.28 15.85 12.2-15.85-12.2Zm2.48-4.88 19.08 6 .05-.16-19.13-5.84Zm.08-12.16-19.23 5.5 19.23-5.5Zm-2.4-4.88L158.3 45.87l.5.68 15.85-12.19ZM170.81 31 180 13.24 170.81 31Zm-11.04 0-9.19-17.76 9.2 17.76Zm-3.92 3.36-16.07-11.9-.08.1 16.15 11.8Zm-2.24 4.88 19.37 4.98-19.37-4.98Zm.08 12.24-19.27 5.35.2.65 19.07-6Zm2.4 4.88-16.15 11.8.3.4 15.85-12.2Zm3.92 3.28-9.19 17.76.5.25 8.7-18.01Zm-110.47 79.2h20a20 20 0 0 0-26.32-18.97l6.32 18.97Zm0 8.24 11.54 16.34a20 20 0 0 0 8.46-16.34h-20Zm-3.04 1.52 5.75 19.16.58-.19-6.33-18.97Zm-3.04.72-3.29-19.73-.45.08 3.74 19.65Zm-8.16-.24-5.4 19.26.2.05 5.2-19.31Zm-3.52-1.44-11.1 16.64c.36.23.72.46 1.08.67l10.02-17.31Zm-2.4-2.16-15.62 12.5 15.62-12.5Zm-1.6-2.48L9.9 151.94 27.8 143Zm-1.52-6.64h-20v.42l20-.42Zm0-26.24h20a20 20 0 0 0-20-20v20Zm-6.24 0h-20a20 20 0 0 0 20 20v-20Zm0-6.88-2.83-19.8a20 20 0 0 0-17.17 19.8h20Zm2.32-.48 5.15 19.32c.4-.1.79-.22 1.18-.35l-6.33-18.97Zm2.48-1.2 10.6 16.96.06-.03-10.66-16.93Zm3.44-3.28 16.64 11.1-16.64-11.1Zm1.92-3.68-18.62-7.29-.17.45 18.8 6.84Zm.88-3.2-19.73-3.29c-.05.32-.1.63-.13.95l19.86 2.34Zm.24-1.84v-20a20 20 0 0 0-20 20h20Zm6.56 0 20-.51a20 20 0 0 0-20-19.49v20Zm.16 12.56-20 .51a20 20 0 0 0 20 19.49v-20Zm11.04 0h20a20 20 0 0 0-20-20v20Zm0 8v20a20 20 0 0 0 20-20h-20Zm-10.96 0v-20a20 20 0 0 0-20 20.22l20-.22Zm.4 27.12 19.73-3.29-19.73 3.29Zm.96 1.76 14.74-13.52-.6-.62L39.46 139Zm2.32 1.12L44 120.24l-2.2 19.88Zm2.88 0-2.1-19.89-.1.01 2.2 19.88Zm2.8-.56 5.97 19.09.69-.23-6.66-18.86Zm53.36 9.44v20a20 20 0 0 0 20-20h-20Zm-11.36 0h-20a20 20 0 0 0 20 20v-20Zm-.64-31.84-19.06 6.06.26.78 18.8-6.84Zm-1.76-3.12-15 13.23 15-13.23Zm-3.12-2.24-8.63 18.04.3.14 8.33-18.18Zm-8.08-.16 6.83 18.8.74-.29-7.57-18.51Zm-3.12 1.84-13.23-15 13.23 15Zm-2.16 2.96-18.2-8.28 18.2 8.28Zm-.8 32.56v20a20 20 0 0 0 20-20h-20Zm-11.68 0h-20a20 20 0 0 0 20 20v-20Zm0-63.6v-20a20 20 0 0 0-20 20h20Zm11.68 0h20a20 20 0 0 0-20-20v20Zm0 24.96h-20a20 20 0 0 0 39.7 3.43l-19.7-3.43Zm1.68-3.52L87 119.42c.1-.11.2-.23.28-.35l-15.82-12.23Zm3.36-3.04 10.78 16.84.16-.1-10.94-16.74Zm4.48-2.08 5.75 19.16.39-.13-6.14-19.03Zm11.36.4-7.52 18.53.17.07 7.35-18.6Zm5.28 3.52-14.39 13.9.25.24 14.14-14.14Zm3.52 5.6-18.7 7.12.22.54 18.48-7.66Zm26.29-29.28h20a20 20 0 0 0-20-20v20Zm0 10.56v20a20 20 0 0 0 20-20h-20Zm-13.68 0h-20a20 20 0 0 0 20 20v-20Zm0-10.56v-20a20 20 0 0 0-20 20h20ZM124.7 149v20a20 20 0 0 0 20-20h-20Zm-11.6 0h-20a20 20 0 0 0 20 20v-20Zm0-47.12v-20a20 20 0 0 0-20 20h20Zm11.6 0h20a20 20 0 0 0-20-20v20ZM180.88 149v20a20 20 0 0 0 20-20h-20Zm-11.36 0h-20a20 20 0 0 0 20 20v-20Zm-.64-31.84-19.13 5.82.33 1.02 18.8-6.84Zm-1.84-3.2-15 13.23.44.48 14.56-13.71Zm-3.12-2.24-8.63 18.04.3.14 8.33-18.18Zm-8-.16 6.83 18.8.74-.29-7.57-18.51Zm-3.12 1.92 13.23 15 .48-.44-13.71-14.56Zm-2.16 2.96 18.2 8.28-18.2-8.28Zm-.8 32.56v20a20 20 0 0 0 20-20h-20Zm-11.76 0h-20a20 20 0 0 0 20 20v-20Zm0-47.52v-20a20 20 0 0 0-20 20h20Zm11.68 0h20a20 20 0 0 0-20-20v20Zm0 8.8h-20a20 20 0 0 0 39.7 3.43l-19.7-3.43Zm1.68-3.52 15.55 12.58.27-.35-15.82-12.23Zm3.36-3.04 10.78 16.84.16-.1-10.94-16.74Zm4.48-2.08 5.75 19.16.39-.13-6.14-19.03Zm11.44.4-7.34 18.6 7.34-18.6Zm5.28 3.52-14.39 13.9.25.24L176 105.56Zm3.52 5.6-18.69 7.12.21.54 18.48-7.66ZM224.47 149l-16.35 11.53a20 20 0 0 0 16.35 8.47v-20Zm-14.16-20.08 16.34-11.53a20 20 0 0 0-30.75-2.34l14.4 13.87Zm-6.24 6.48-14.4-13.87a20 20 0 0 0-5.6 13.87h20Zm0 13.6v20a20 20 0 0 0 20-20h-20Zm-11.76 0h-20a20 20 0 0 0 20 20v-20Zm0-63.6v-20a20 20 0 0 0-20 20h20Zm11.76 0h20a20 20 0 0 0-20-20v20Zm0 37.28h-20a20 20 0 0 0 34.85 13.4l-14.85-13.4Zm19.12-21.2v-20a20 20 0 0 0-14.85 6.6l14.85 13.4Zm13.44 0 14.77 13.48a20 20 0 0 0-14.77-33.48v20Zm-19.2 21.04-14.78-13.48a20 20 0 0 0-1.04 25.72l15.82-12.24ZM237.9 149v20a20 20 0 0 0 15.82-32.24L237.9 149Zm20.22 0v20a20 20 0 0 0 20-20h-20Zm-10 0h-20a20 20 0 0 0 20 20v-20Zm0-11.36v-20a20 20 0 0 0-20 20h20Zm10 0h20a20 20 0 0 0-20-20v20Zm-176.48 34.8v20a20 20 0 0 0 20-20h-20Zm-13.68 0h-20a20 20 0 0 0 20 20v-20Zm0-10.56v-20a20 20 0 0 0-20 20h20Zm13.68 0h20a20 20 0 0 0-20-20v20Zm-2.48 76.88 17.9 8.94-17.9-8.94Zm-1.68 2.48-15.11-13.1-.5.6 15.61 12.5Zm-2.48 2.08L65 226.02c-.36.2-.72.42-1.07.66l11.1 16.64Zm-3.52 1.52-5.2-19.31 5.2 19.31Zm-4.8.56-1.05 19.97 1.05.03v-20Zm-3.12-.4 3.93-19.61-.45-.09-3.48 19.7Zm-3.04-.8 6.33-18.97-.58-.19-5.75 19.16Zm-3.04-1.36h-20a20 20 0 0 0 9.57 17.06l10.43-17.06Zm0-8.24 7.62-18.5a20 20 0 0 0-27.62 18.5h20Zm2.72 1.04 7.62-18.5-.96-.36-6.66 18.86Zm5.44.24 5.5 19.23-5.5-19.23Zm1.76-1.12-14.14-14.14c-.52.52-1.01 1.07-1.47 1.65l15.61 12.49Zm.96-1.92-19.72-3.29c-.1.58-.17 1.17-.22 1.76l19.94 1.53Zm.16-6.88-20-.38v.38h20Zm.16-10.72 20 .25-20-.25Zm.16-15.12-20-.19 20 .19Zm.16-18.64v-20a20 20 0 0 0-20 19.84l20 .16Zm11.6 0h20a20 20 0 0 0-20-20v20Zm11.51 0v-20a20 20 0 0 0-20 20h20Zm11.36 0h20a20 20 0 0 0-20-20v20Zm.56 32L85 219.54c.1.36.23.71.36 1.06l18.7-7.12Zm1.84 3.12-15.36 12.8c.12.15.24.3.37.43l15-13.23Zm3.04 2.24-8.63 18.04.66.3 7.97-18.34Zm8 .16 7.12 18.69.46-.18-7.58-18.51Zm3.12-1.92-13.23-15 13.23 15Zm2.96-35.6v-20a20 20 0 0 0-20 20h20Zm11.68 0h20a20 20 0 0 0-20-20v20Zm0 47.52v20a20 20 0 0 0 20-20h-20Zm-11.6 0h-20a20 20 0 0 0 20 20v-20Zm0-8.8h20a20 20 0 0 0-39.7-3.43l19.7 3.43Zm-1.68 3.6 15.55 12.58.28-.35-15.83-12.23Zm-3.36 3.04 10.78 16.84.47-.3-11.25-16.54Zm-4.48 2.08 5.58 19.2c.19-.05.38-.1.56-.17l-6.14-19.03Zm-11.36-.48-7.51 18.53.17.07 7.34-18.6ZM97 225l-14.38 13.9.24.24L97 225Zm-3.6-5.6-18.69 7.12.22.54 18.47-7.66Zm90.75 2-17.24-10.14-.1.16 17.34 9.98Zm-4.32 4.48 10.98 16.71-10.98-16.71Zm-6.64 2.8-4.85-19.4-.1.02 4.95 19.38Zm-17.2-.48 6.77-18.82-6.77 18.82Zm-6.8-3.68 12.49-15.62-12.5 15.62Zm-4.4-4.96-17.58 9.54c.1.2.22.4.34.6l17.24-10.14Zm-1.76-5.44-2.3-19.87a20 20 0 0 0-17.62 21.68l19.92-1.81Zm11.04-1.28h20a20 20 0 0 0-22.3-19.87l2.3 19.87Zm.96 3.12-16.65 11.1.3.43 16.35-11.53Zm2.48 2.4-11.3 16.5 11.3-16.5Zm3.44 1.68-6.33 18.97.93.29 5.4-19.26Zm7.68.16-4.44-19.5 4.44 19.5Zm3.04-1.12-9.36-17.68-.45.25 9.8 17.43Zm2.08-1.76-15.86-12.2-.59.82 16.45 11.38Zm-6.8-7.76-5.62 19.2.43.12 5.19-19.32Zm-7.12-1.84-4.95 19.38.48.11 4.47-19.49Zm-7.04-2.56-8.77 17.97 8.77-17.97Zm-2.8-20.16 12.16 15.87.08-.06L149.99 185Zm6.16-3.04 5.82 19.13-5.82-19.13Zm17.44.32-7.3 18.63.5.18 6.8-18.81Zm6.24 3.52-13.14 15.08.52.44 12.62-15.52Zm3.84 4.56-17.78 9.17 17.78-9.17Zm1.52 4.64 2.4 19.85a20 20 0 0 0 17.47-22.06L185.2 195Zm-10.56 1.28h-20a20 20 0 0 0 22.4 19.85l-2.4-19.85Zm-.72-2.4-18.1 8.52c.2.43.43.86.66 1.28l17.44-9.8Zm-1.92-2.48-13.65 14.62.47.43L172 191.4Zm-3.04-1.84-7.98 18.34c.23.1.46.2.69.28l7.29-18.62Zm-10 .64-10.55-17-.27.18 10.82 16.82Zm-.08 7.12 9.7-17.48-9.7 17.48Zm5.36 2.16-5.75 19.16.44.12 5.3-19.28Zm6.96 1.84-4.95 19.38.1.02 4.85-19.4Zm7.04 2.64-9.3 17.7.35.19 8.95-17.89Zm5.36 4.32-15.67 12.44.19.22 15.48-12.66Zm36.03 10.56h20a20 20 0 0 0-26.32-18.97l6.32 18.97Zm0 8.24 11.53 16.34a20 20 0 0 0 8.47-16.34h-20Zm-3.04 1.52 5.75 19.16.58-.19-6.33-18.97Zm-3.04.72-3.29-19.73-.45.08 3.74 19.65Zm-8.16-.24-5.4 19.26.2.05 5.2-19.31Zm-3.52-1.44-11.1 16.64c.36.23.72.46 1.08.67l10.02-17.31Zm-2.4-2.16-15.62 12.5 15.62-12.5Zm-1.6-2.48-17.89 8.94 17.9-8.94Zm-1.52-6.64h-20v.42l20-.42Zm0-26.24h20a20 20 0 0 0-20-20v20Zm-6.24 0h-20a20 20 0 0 0 20 20v-20Zm0-6.88-2.83-19.8a20 20 0 0 0-17.17 19.8h20Zm2.32-.48 5.15 19.33c.4-.11.79-.23 1.18-.36l-6.33-18.97Zm2.48-1.2 10.6 16.96.06-.03-10.66-16.93Zm3.44-3.28 16.64 11.1-16.64-11.1Zm1.92-3.68-18.62-7.29-.17.45 18.8 6.84Zm.88-3.2-19.73-3.29c-.05.32-.1.63-.13.95l19.86 2.34Zm.24-1.84v-20a20 20 0 0 0-20 20h20Zm6.56 0 20-.51a20 20 0 0 0-20-19.49v20Zm.16 12.56-20 .51a20 20 0 0 0 20 19.49v-20Zm11.04 0h20a20 20 0 0 0-20-20v20Zm0 8v20a20 20 0 0 0 20-20h-20Zm-10.96 0v-20a20 20 0 0 0-20 20.22l20-.22Zm.4 27.12 19.73-3.29-19.73 3.29Zm.96 1.76 14.74-13.51-.6-.63L209.54 219Zm2.32 1.12 2.21-19.88-2.2 19.88Zm2.88 0-2.1-19.89-.1.01 2.2 19.88Zm2.8-.56 5.97 19.09.69-.23-6.66-18.86Zm-155.75 78 14.14 14.14.18-.18-14.32-13.96Zm4.16-8 2.19-19.88a20 20 0 0 0-21.74 15.64l19.55 4.24Zm9.44 1.04 19.7 3.48a20 20 0 0 0-17.51-23.36l-2.2 19.88Zm-2.48 7.6L55 289.26l-.08.16 17.98 8.78Zm-4.56 6 13.26 14.97.02-.02-13.28-14.95Zm-6.72 3.92-6.9-18.77-.13.04 7.03 18.73Zm-18.4-.4-7.97 18.35.13.05 7.84-18.4Zm-7.36-5.12L21.2 316.2l.17.18 14.5-13.78Zm-4.8-7.68-18.73 7.02.16.4 18.57-7.42Zm0-19.2-18.62-7.31-.11.29 18.73 7.02Zm4.88-7.76 14.49 13.78-14.5-13.78Zm7.36-5.2-8.13-18.28-.12.06 8.25 18.22Zm18-.4-7.37 18.6.14.05 7.23-18.65Zm6.8 4.24-13.74 14.54.42.39 13.32-14.93Zm4.8 6.32L55 281.86l.25.47 17.65-9.41Zm2.56 7.84 1.87 19.91a20 20 0 0 0 17.9-22.9l-19.77 2.99Zm-9.36.88-19.79 2.95a20 20 0 0 0 21.66 16.96l-1.87-19.91Zm-4-8.64-14.32 13.97L62.11 273Zm-14.16-2.08 8.45 18.12.49-.23-8.94-17.89Zm-4.08 3.2L28.3 261.55l-.3.38 15.86 12.19Zm-2.4 4.88 19.23 5.5-19.23-5.5Zm.08 12.32-19.13 5.84.05.16 19.08-6Zm2.56 4.88-15.56 12.57L44.1 296.2Zm51.07 2.8 14.75-13.51-.6-.63L95.18 299Zm2.32 1.12 2.21-19.88-2.2 19.88Zm2.88 0-2.09-19.89-.11.01 2.2 19.88Zm2.8-.56 5.97 19.09.7-.23-6.67-18.86Zm2.08-.72h20a20 20 0 0 0-26.32-18.97l6.32 18.97Zm0 8.24 11.54 16.34a20 20 0 0 0 8.46-16.34h-20Zm-2.96 1.52 5.75 19.16.86-.28-6.6-18.88Zm-3.04.72-3.28-19.73-.46.08 3.74 19.65Zm-8.16-.24-5.39 19.26.2.05 5.2-19.31Zm-3.52-1.44L76.5 324.28c.35.24.7.46 1.07.67l10.02-17.31Zm-2.48-2.16-15.61 12.5.5.6 15.11-13.1ZM83.5 303l-17.88 8.94L83.5 303Zm-1.52-6.64h-20v.43l20-.43Zm0-50.96v-20a20 20 0 0 0-20 20h20Zm11.84 0h20a20 20 0 0 0-20-20v20Zm0 7.84h-20v.34l20-.34Zm.08 10.16h-20v.3l20-.3Zm.08 10.88h-20v.29l20-.29Zm.24 22.96-19.72 3.29 19.72-3.29Zm30.24-55.28h20a20 20 0 0 0-20-20v20Zm0 10.56v20a20 20 0 0 0 20-20h-20Zm-13.68 0h-20a20 20 0 0 0 20 20v-20Zm0-10.56v-20a20 20 0 0 0-20 20h20ZM123.42 309v20a20 20 0 0 0 20-20h-20Zm-11.6 0h-20a20 20 0 0 0 20 20v-20Zm0-47.12v-20a20 20 0 0 0-20 20h20Zm11.6 0h20a20 20 0 0 0-20-20v20Zm40.06 35.68 14.14 14.14.18-.18-14.32-13.96Zm4.16-8 2.19-19.88a20 20 0 0 0-21.74 15.64l19.55 4.24Zm9.44 1.04 19.7 3.48a20 20 0 0 0-17.51-23.36l-2.2 19.88Zm-2.48 7.6-17.9-8.94-.07.16 17.97 8.78Zm-4.56 6 13.26 14.97.02-.02-13.28-14.95Zm-6.72 3.92-6.9-18.77-.13.04 7.03 18.73Zm-18.4-.4-7.97 18.35.13.05 7.84-18.4Zm-7.36-5.12-14.67 13.6.17.18 14.5-13.78Zm-4.8-7.68-18.73 7.02.16.4 18.57-7.42Zm0-19.2-18.62-7.31-.11.29 18.73 7.02Zm4.88-7.76 14.49 13.78-14.5-13.78Zm7.36-5.2-8.13-18.28-.12.06 8.25 18.22Zm18-.4-7.37 18.6.14.05 7.23-18.65Zm6.8 4.24-13.74 14.54.42.39 13.32-14.93Zm4.8 6.32-17.9 8.94.25.47 17.65-9.41Zm2.56 7.84 1.87 19.91a20 20 0 0 0 17.9-22.9l-19.77 2.99Zm-9.36.88L148 284.59a20 20 0 0 0 21.66 16.96l-1.87-19.91Zm-4-8.64-14.32 13.97L163.8 273Zm-14.16-2.08 8.45 18.12.49-.23-8.94-17.89Zm-4.08 3.2L130 261.55l-.3.38 15.86 12.19Zm-2.4 4.88 19.23 5.5-19.23-5.5Zm.08 12.32-19.13 5.84.05.16 19.08-6Zm2.56 4.88-15.56 12.57 15.56-12.57Zm70.5 12.8-16.34 11.53A20 20 0 0 0 216.3 329v-20Zm-14.16-20.08 16.35-11.53a20 20 0 0 0-30.75-2.34l14.4 13.87Zm-6.24 6.48-14.4-13.87a20 20 0 0 0-5.6 13.87h20Zm0 13.6v20a20 20 0 0 0 20-20h-20Zm-11.76 0h-20a20 20 0 0 0 20 20v-20Zm0-63.6v-20a20 20 0 0 0-20 20h20Zm11.76 0h20a20 20 0 0 0-20-20v20Zm0 37.28h-20a20 20 0 0 0 34.86 13.4l-14.86-13.4Zm19.12-21.2v-20a20 20 0 0 0-14.85 6.6l14.85 13.4Zm13.44 0 14.78 13.48a20 20 0 0 0-14.78-33.48v20Zm-19.2 21.04-14.77-13.48a20 20 0 0 0-1.05 25.72l15.82-12.24ZM229.74 309v20a20 20 0 0 0 15.82-32.24L229.74 309Zm20.23 0v20a20 20 0 0 0 20-20h-20Zm-10 0h-20a20 20 0 0 0 20 20v-20Zm0-11.36v-20a20 20 0 0 0-20 20h20Zm10 0h20a20 20 0 0 0-20-20v20ZM134.67 49h-11.35v40h11.36V49Zm8.65 20V40.68h-40V69h40Zm0-28.32c0-3.65-.67-7.13-1.85-10.36L103.88 44a9.8 9.8 0 0 1-.56-3.31h40Zm-1.5-9.34a28 28 0 0 0-6.42-11.09l-29.13 27.42a12 12 0 0 1-2.72-4.69l38.26-11.64Zm-5.98-10.61a29.18 29.18 0 0 0-9.79-7.2L109.4 49.9a10.9 10.9 0 0 1-3.55-2.7l30-26.47Zm-9.5-7.05a30.05 30.05 0 0 0-13.02-2.84v40c-.54 0-2.17-.09-4.23-1.08l17.26-36.08Zm-13.02-2.84c-3.91 0-7.68.78-11.17 2.2l15.14 37.03c-1.15.47-2.51.77-3.97.77v-40Zm-10.44 1.92a28.98 28.98 0 0 0-9.99 6.16l27.42 29.12a11.01 11.01 0 0 1-3.76 2.32l-13.67-37.6Zm-9.51 5.72a28.67 28.67 0 0 0-7.14 9.68l36.41 16.56a11.33 11.33 0 0 1-2.81 3.76l-26.46-30Zm-7.14 9.68a29.35 29.35 0 0 0-2.6 12.2h40c0 1.08-.2 2.64-.98 4.36L86.22 28.16Zm-2.6 12.2V69h40V40.36h-40Zm20 8.64H91.89v40h11.76V49Zm8.25 20V21.48h-40V69h40Zm-20-27.52h11.68v-40H91.88v40Zm-8.32-20v8.8h40v-8.8h-40Zm39.7 12.23a12.38 12.38 0 0 1-2.48 5.63L89.7 14.18a27.64 27.64 0 0 0-5.84 12.67l39.41 6.86Zm-2.2 5.28a6.87 6.87 0 0 1-1.68 1.58L97.82 6.87c-3.14 2.01-6 4.55-8.4 7.66L121.05 39Zm-1.52 1.47c-.23.15-.5.27-.72.34L107.34 2.48a37.15 37.15 0 0 0-9.68 4.5l21.9 33.48Zm-.32.21c-.3.1-.69.17-1.1.17v-40c-3.83 0-7.58.6-11.18 1.77l12.28 38.06Zm-1.1.17c-.08 0-.22 0-.4-.04a2.97 2.97 0 0 1-.55-.16l14.7-37.2a37.27 37.27 0 0 0-13.75-2.6v40Zm-.95-.2a4.93 4.93 0 0 1-1.76-1.19l28.78-27.78a34.8 34.8 0 0 0-12.33-8.23l-14.69 37.2Zm-1.51-.94a4.69 4.69 0 0 1-1.03-1.42L152 24.04a35.66 35.66 0 0 0-8.07-12.62L115.66 39.7Zm-.82-.88a3.12 3.12 0 0 1-.19-.6c0-.02.03.14.03.54h40c0-4.95-.78-10.18-2.89-15.26l-36.95 15.32Zm-.16-.06V69h40V38.76h-40Zm50.7 2.08c1.44 0 1.9.24 1.79.2l16.25-36.56A44.15 44.15 0 0 0 165.36.84v40Zm1.79.2c.23.1.33.17.36.19l.03.03 30.02-26.44A40.83 40.83 0 0 0 183.4 4.48l-16.24 36.56Zm.55.4c.03.02.2.2.4.79l37.87-12.86a41.94 41.94 0 0 0-8.57-14.73l-29.7 26.8Zm.54 1.2c.2.58.4 1.4.4 2.6h40a47.4 47.4 0 0 0-2.81-16.28l-37.6 13.67Zm.4 2.6c0 1.17-.2 1.9-.38 2.37l37.23 14.62a46.22 46.22 0 0 0 3.14-16.99h-40Zm-.5 2.66c-.23.61-.44.87-.56 1l28.98 27.56a42.64 42.64 0 0 0 9.04-14.52L168.16 47.9Zm-.74 1.18c-.01.02-.1.14-.52.32l15.67 36.8a41.23 41.23 0 0 0 14.19-9.92l-29.34-27.2Zm-.65.37c-.06.03-.43.19-1.4.19v40c5.86 0 11.73-1.06 17.32-3.5l-15.92-36.69Zm-1.4.19a4.9 4.9 0 0 1-1.84-.24l-15.68 36.8a44.43 44.43 0 0 0 17.52 3.44v-40Zm-1.72-.19a1.5 1.5 0 0 1-.57-.37l-29.34 27.2a41.43 41.43 0 0 0 13.99 9.87l15.92-36.7Zm-.57-.37a3.43 3.43 0 0 1-.66-1.18l-37.45 14.04a43.3 43.3 0 0 0 8.77 14.34l29.34-27.2Zm-.55-.89a8.67 8.67 0 0 1-.44-2.95h-40c0 5.55.86 11.07 2.77 16.4l37.67-13.45Zm-.44-2.95c0-1.1.17-1.8.37-2.3l-37.37-14.27a46.23 46.23 0 0 0-3 16.57h40Zm.4-2.42c.28-.72.53-1.03.67-1.18l-29.34-27.2a43.3 43.3 0 0 0-8.77 14.34l37.45 14.04Zm.83-1.36c.08-.08.21-.23.66-.42L147.72 4.48a41.64 41.64 0 0 0-14.07 10.14l29.66 26.84Zm.66-.42c.07-.04.44-.2 1.4-.2v-40a43.16 43.16 0 0 0-17.65 3.64l16.25 36.56Zm1.4 39.72c4.78 0 9.71-1.02 14.38-3.44L161.38 41.8a8.91 8.91 0 0 1 4-1.04v40Zm14.38-3.44a31.62 31.62 0 0 0 10.58-8.85l-31.7-24.38a8.38 8.38 0 0 1 2.74-2.3l18.38 35.53Zm10.58-8.85a35.57 35.57 0 0 0 5.71-11.07l-38.16-12c.04-.1.23-.63.75-1.31l31.7 24.38Zm5.76-11.23a40.98 40.98 0 0 0 1.75-12h-40c0 .2-.01.31-.02.35 0 .04 0 .02.01-.03l38.26 11.68Zm1.75-12c0-3.81-.48-7.67-1.57-11.5l-38.46 11c-.02-.1.03.04.03.5h40Zm-1.57-11.5a34.36 34.36 0 0 0-5.78-11.57l-31.7 24.38a5.74 5.74 0 0 1-.98-1.82l38.46-10.98Zm-5.27-10.89A30.57 30.57 0 0 0 180 13.24l-18.38 35.52a9.42 9.42 0 0 1-3.32-2.89L191 22.85ZM180 13.24a31.64 31.64 0 0 0-14.63-3.44v40c-.5 0-1.95-.1-3.75-1.04L180 13.24ZM165.37 9.8c-4.58 0-9.77.84-14.79 3.44l18.38 35.52a8.32 8.32 0 0 1-3.59 1.04v-40Zm-14.79 3.44a31.28 31.28 0 0 0-10.8 9.22l32.14 23.8a8.74 8.74 0 0 1-2.96 2.5l-18.38-35.52Zm-10.88 9.32a34.13 34.13 0 0 0-5.46 11.7l38.74 9.96c-.07.3-.32 1.04-.98 1.94l-32.3-23.6Zm-5.46 11.7a44.02 44.02 0 0 0-1.35 10.98h40c0-.63.07-.94.1-1.02l-38.75-9.96Zm-1.35 10.98c0 3.83.46 7.73 1.53 11.6l38.54-10.71c0 .02-.07-.24-.07-.89h-40Zm1.72 12.24a36.64 36.64 0 0 0 5.33 10.68l32.3-23.6c.44.6.55 1 .53.92l-38.16 12Zm5.63 11.07c2.84 3.7 6.42 6.7 10.58 8.85l18.38-35.52a8.37 8.37 0 0 1 2.74 2.29l-31.7 24.38Zm11.08 9.1c4.7 2.27 9.55 3.11 14.05 3.11v-40c.45 0 1.73.1 3.34.87l-17.4 36.02ZM29.54 138.84v8.24h40v-8.24h-40Zm8.47-8.1c.79-.56 1.55-.9 2.17-1.11l12.65 37.94a31.6 31.6 0 0 0 8.25-4.15L38 130.74Zm2.74-1.3a5.2 5.2 0 0 1-.58.15l6.58 39.46c1.9-.32 3.74-.77 5.5-1.3l-11.5-38.3Zm-1.03.23c.1-.01.22-.03.38-.03v40c2.4 0 4.77-.23 7.1-.67l-7.48-39.3Zm.38-.03h-.24c.06 0 .28.03.64.13l-10.4 38.62c3.46.93 6.87 1.25 10 1.25v-40Zm.6.18.3.1c.18.09.46.21.8.41l-20.04 34.62a35.1 35.1 0 0 0 8.15 3.39l10.78-38.52Zm2.18 1.18c.53.36 1.32 1 2.12 1.99l-31.24 24.98a30.49 30.49 0 0 0 6.93 6.31L42.88 131Zm2.12 1.99c.17.22.42.57.67 1.07L9.89 151.94a34 34 0 0 0 3.87 6.03L45 133Zm.67 1.07c.57 1.13.59 1.91.59 1.87l-40 .85a35.37 35.37 0 0 0 3.63 15.16l35.78-17.88Zm.6 2.3v-26.24h-40v26.24h40Zm-20-46.24h-6.25v40h6.24v-40Zm13.75 20v-6.88h-40v6.88h40Zm-17.17 12.92c1.6-.23 3.15-.56 4.64-.96L17.2 83.44l-.08.01h.08l5.66 39.59Zm5.82-1.3c2.55-.86 4.8-2 6.75-3.22L14.22 84.6c.24-.15.84-.5 1.8-.81l12.65 37.94Zm6.8-3.25a31.27 31.27 0 0 0 9.43-9.12L11.62 87.2a8.78 8.78 0 0 1 2.55-2.55l21.3 33.84Zm9.43-9.12a37.4 37.4 0 0 0 4.08-7.94l-37.6-13.67c.12-.32.23-.53.27-.61.04-.09.04-.07-.03.04l33.28 22.18Zm3.9-7.48a33.08 33.08 0 0 0 2.12-8.15L11.2 89.06c.08-.73.21-1.24.28-1.48l.08-.27L48.8 101.9Zm1.99-7.2c.07-.45.51-2.86.51-5.13h-40a17.94 17.94 0 0 1 .07-1.55l.04-.38-.08.48L50.8 94.7ZM31.3 109.56h6.56v-40H31.3v40ZM17.87 90.07c.05 1.9.07 3.84.07 5.81h40c0-2.3-.03-4.58-.09-6.83l-39.98 1.02Zm.07 5.81c0 2.25.03 4.5.09 6.75L58 101.61c-.04-1.91-.07-3.82-.07-5.73h-40Zm20.08 26.24h11.04v-40H38.02v40Zm-8.96-20v8h40v-8h-40Zm20-12H38.1v40h10.96v-40ZM18.1 110.34c.16 14.63.24 23.04.24 25.46h40c0-2.7-.08-11.4-.24-25.9l-40 .44Zm.24 25.46c0 2.04.29 3.87.43 4.73l39.46-6.58.03.24a12.75 12.75 0 0 1 .08 1.61h-40Zm.43 4.73a23.2 23.2 0 0 0 6.55 12.61l28.28-28.28a16.8 16.8 0 0 1 4.63 9.1l-39.46 6.57Zm5.95 11.98A23.55 23.55 0 0 0 39.57 160L44 120.24c3.27.37 7.16 1.9 10.21 5.25L24.72 152.5ZM39.57 160c2.43.27 4.87.27 7.3 0l-4.42-39.76c.51-.05 1.03-.05 1.54 0L39.57 160Zm7.19.01a34.4 34.4 0 0 0 6.67-1.36L41.5 120.47c.56-.18.95-.23 1.07-.24l4.19 39.78Zm7.36-1.59 1.75-.6-12.65-37.95c-.65.21-1.48.5-2.41.83l13.3 37.72Zm46.7-29.42H89.46v40h11.36v-40Zm8.64 20v-28.32h-40V149h40Zm0-28.32c0-3.65-.67-7.13-1.85-10.36L70.02 124a9.78 9.78 0 0 1-.56-3.32h40Zm-1.58-9.58a28.61 28.61 0 0 0-5.82-10.3l-30 26.47a11.4 11.4 0 0 1-2.3-4.05l38.12-12.12Zm-5.82-10.3a29.17 29.17 0 0 0-9.79-7.18l-16.66 36.36c-.85-.39-2.22-1.2-3.55-2.7l30-26.47Zm-9.5-7.04a30.05 30.05 0 0 0-13.02-2.84v40c-.54 0-2.17-.09-4.23-1.08l17.26-36.08Zm-13.02-2.84c-3.85 0-7.65.74-11.25 2.2l15.14 37.03c-1.25.51-2.6.77-3.9.77v-40Zm-10.52 1.92a29.65 29.65 0 0 0-9.51 5.64l26.46 30c-1.03.9-2.18 1.56-3.28 1.96l-13.67-37.6Zm-9.51 5.64a28.67 28.67 0 0 0-7.14 9.68l36.42 16.56a11.35 11.35 0 0 1-2.82 3.76l-26.46-30Zm-7.14 9.68a29.35 29.35 0 0 0-2.6 12.2h40c0 1.08-.2 2.64-.98 4.36l-36.42-16.56Zm-2.6 12.2V149h40v-28.64h-40Zm20 8.64H58.1v40h11.68v-40Zm8.33 20V85.4h-40V149h40Zm-20-43.6h11.68v-40H58.1v40Zm-8.32-20v24.96h40V85.4h-40Zm39.7 28.39a12.4 12.4 0 0 1-2.48 5.63L55.91 94.26a27.64 27.64 0 0 0-5.84 12.67l39.41 6.86Zm-2.2 5.28a6.86 6.86 0 0 1-1.68 1.58l-21.56-33.7c-3.14 2.01-6 4.55-8.4 7.66l31.64 24.46Zm-1.52 1.47c-.23.15-.49.27-.71.34l-11.5-38.32a37.14 37.14 0 0 0-9.68 4.5l21.9 33.48Zm-.32.21c-.3.1-.69.17-1.1.17v-40c-3.83 0-7.58.6-11.18 1.77l12.28 38.06Zm-1.1.17c-.08 0-.24 0-.47-.05a3.9 3.9 0 0 1-.73-.22L98.17 83.6a36.65 36.65 0 0 0-13.83-2.67v40Zm-1.03-.2a4.95 4.95 0 0 1-1.76-1.19l28.78-27.78A34.8 34.8 0 0 0 98 83.52l-14.69 37.2Zm-1.51-.94a4.68 4.68 0 0 1-1.03-1.42l37.38-14.24a35.67 35.67 0 0 0-8.07-12.62L81.8 119.78Zm-.82-.88a3.03 3.03 0 0 1-.18-.58c-.01-.04.02.1.02.44h40c0-4.96-.8-10.14-2.89-15.18L80.98 118.9Zm-.16-.14V149h40v-30.24h-40Zm24.93-36.8v10.56h40V81.96h-40Zm20-9.44h-13.68v40h13.68v-40Zm6.32 20V81.96h-40v10.56h40Zm-20 9.44h13.68v-40h-13.68v40ZM124.7 129h-11.6v40h11.6v-40Zm8.4 20v-47.12h-40V149h40Zm-20-27.12h11.6v-40h-11.6v40Zm-8.4-20V149h40v-47.12h-40ZM180.88 129h-11.36v40h11.36v-40Zm8.64 20v-28.32h-40V149h40Zm0-28.32c0-3.65-.67-7.13-1.84-10.36L150.08 124a9.77 9.77 0 0 1-.56-3.32h40Zm-1.5-9.34a28 28 0 0 0-6.42-11.09l-29.12 27.42a12 12 0 0 1-2.73-4.69L188 111.34Zm-5.98-10.61a29.17 29.17 0 0 0-9.79-7.2L155.6 129.9c-.85-.39-2.22-1.2-3.55-2.7l30-26.47Zm-9.5-7.05a30.05 30.05 0 0 0-13.02-2.84v40c-.54 0-2.17-.09-4.23-1.08l17.26-36.08Zm-13.02-2.84c-3.91 0-7.68.78-11.17 2.2l15.14 37.03c-1.15.47-2.51.77-3.97.77v-40Zm-10.44 1.92a28.99 28.99 0 0 0-9.99 6.16l27.42 29.12a11.03 11.03 0 0 1-3.76 2.32l-13.66-37.6Zm-9.51 5.72a28.68 28.68 0 0 0-7.14 9.68l36.42 16.56a11.35 11.35 0 0 1-2.82 3.76l-26.46-30Zm-7.14 9.68a29.35 29.35 0 0 0-2.59 12.2h40c0 1.08-.21 2.64-1 4.36l-36.4-16.56Zm-2.59 12.2V149h40v-28.64h-40Zm20 8.64h-11.76v40h11.76v-40Zm8.24 20v-47.52h-40V149h40Zm-20-27.52h11.68v-40h-11.68v40Zm-8.32-20v8.8h40v-8.8h-40Zm39.7 12.23a12.41 12.41 0 0 1-2.47 5.63l-31.1-25.16a27.65 27.65 0 0 0-5.83 12.67l39.4 6.86Zm-2.2 5.28a6.86 6.86 0 0 1-1.68 1.58l-21.56-33.7c-3.14 2.01-6 4.55-8.4 7.66L167.25 119Zm-1.51 1.47c-.24.15-.5.27-.72.34l-11.5-38.32a37.13 37.13 0 0 0-9.68 4.5l21.9 33.48Zm-.33.21c-.3.1-.68.17-1.1.17v-40c-3.83 0-7.58.6-11.18 1.77l12.28 38.06Zm-1.1.17c-.08 0-.22 0-.4-.04a2.97 2.97 0 0 1-.54-.16l14.68-37.2a37.27 37.27 0 0 0-13.74-2.6v40Zm-.94-.2a4.95 4.95 0 0 1-1.77-1.19l28.78-27.78a34.81 34.81 0 0 0-12.33-8.23l-14.68 37.2Zm-1.52-.94a4.68 4.68 0 0 1-1.03-1.42l37.38-14.24a35.65 35.65 0 0 0-8.07-12.62l-28.28 28.28Zm-.82-.88c-.14-.35-.18-.57-.19-.6 0-.02.03.14.03.54h40c0-4.95-.78-10.18-2.89-15.26l-36.95 15.32Zm-.16-.06V149h40v-30.24h-40Zm79.93 18.71-14.16-20.08-32.69 23.06 14.16 20.08 32.7-23.06Zm-44.9-22.42-6.25 6.48 28.81 27.74 6.24-6.48-28.8-27.74Zm-11.84 20.35V149h40v-13.6h-40Zm20-6.4H192.3v40h11.76v-40Zm8.24 20V85.4h-40V149h40Zm-20-43.6h11.76v-40H192.3v40Zm-8.24-20v37.28h40V85.4h-40Zm34.85 50.67 19.12-21.2-29.7-26.78-19.12 21.2 29.7 26.78Zm4.27-14.59h13.44v-40h-13.44v40ZM221.85 88l-19.2 21.04L232.2 136l19.2-21.04L221.85 88Zm-20.24 46.76 20.48 26.48 31.64-24.48-20.48-26.48-31.64 24.48Zm36.3-5.76h-13.44v40h13.44v-40Zm20.22 0h-10v40h10v-40Zm10 20v-11.36h-40V149h40Zm-20 8.64h10v-40h-10v40Zm-10-20V149h40v-11.36h-40Zm-156.48 14.8H67.97v40h13.68v-40Zm6.32 20v-10.56h-40v10.56h40Zm-20 9.44h13.68v-40H67.97v40Zm-6.32-20v10.56h40v-10.56h-40Zm-1.04 70.24c0-.08.03-1.02.68-2.3l35.77 17.88a34.62 34.62 0 0 0 3.55-15.58h-40Zm.68-2.3c.4-.8.8-1.35 1.09-1.68l30.23 26.2a31.95 31.95 0 0 0 4.45-6.64L61.3 229.82Zm.59-1.07a11.33 11.33 0 0 1 3.11-2.74l20.04 34.62a28.7 28.7 0 0 0 8.08-6.9l-31.23-24.98Zm2.04-2.07a8.39 8.39 0 0 1 2.37-1.15l10.4 38.62c3-.8 6.27-2.1 9.42-4.19l-22.19-33.28Zm2.37-1.15c.36-.1.59-.13.65-.13h-.25v40c3.14 0 6.55-.32 10-1.25l-10.4-38.62Zm1.45-.1-.24-.04-7.85 39.22c1.95.4 3.95.65 6 .76l2.1-39.94Zm-.7-.13.18.04a5.57 5.57 0 0 1-.36-.11L54.2 263.17c1.8.6 3.79 1.15 5.89 1.53l6.95-39.4Zm-.76-.26c.6.18 1.15.44 1.64.73L47.06 259.9c2.41 1.48 5 2.64 7.73 3.46l11.5-38.32Zm11.21 17.8v-8.24h-40v8.24h40Zm-27.61 10.25c1.22.5 2.44.97 3.68 1.41l13.31-37.72c-.58-.2-1.16-.43-1.76-.67l-15.23 36.98Zm2.72 1.04a27.68 27.68 0 0 0 10.57 2.07v-40c1.32 0 2.94.24 4.66.95L52.6 254.13Zm10.57 2.07c2.47 0 5.17-.29 7.98-1.09l-11-38.46c1.32-.38 2.37-.45 3.02-.45v40Zm7.98-1.09a23.35 23.35 0 0 0 11.88-7.86L51.8 222.27a16.65 16.65 0 0 1 8.36-5.62l10.99 38.46Zm10.4-6.2a23 23 0 0 0 6.76-14.54l-39.88-3.06a17 17 0 0 1 4.84-10.7l28.29 28.3Zm6.55-12.78c.1-.63.43-2.55.43-4.65h-40a16.84 16.84 0 0 1 .1-1.8l.02-.13 39.45 6.58Zm.43-4.65V225.96h-40V231.48h40Zm0-5.14.16-10.85-40-.5c-.05 4.3-.1 7.83-.15 10.6l39.99.75Zm.16-10.86c.06-4.4.1-9.45.16-15.17l-40-.38L48.7 215l40 .48Zm.16-15.17c.06-5.72.11-11.94.16-18.67l-40-.32c-.05 6.71-.1 12.92-.16 18.61l40 .38Zm-19.84 1.17h11.6v-40h-11.6v40Zm-8.4-20v50.64h40v-50.64h-40Zm31.51 20h11.36v-40H92.12v40Zm-8.64-20v28.4h40v-28.4h-40Zm0 28.4c0 3.3.51 6.54 1.5 9.66l38.12-12.12c.25.78.38 1.62.38 2.46h-40Zm1.87 10.72a30.94 30.94 0 0 0 5.17 8.8l30.73-25.6c.55.66 1.09 1.53 1.48 2.56L85.35 220.6Zm5.54 9.23a29.38 29.38 0 0 0 9.4 7.05l17.26-36.08c.9.43 2.14 1.22 3.33 2.57l-30 26.46Zm10.06 7.35a30.9 30.9 0 0 0 12.37 2.46v-40c.31 0 1.7.04 3.58.86l-15.95 36.68Zm12.37 2.46c3.55 0 7.18-.6 10.72-1.95l-14.24-37.38c1.3-.5 2.54-.67 3.52-.67v40Zm11.18-2.13a30.93 30.93 0 0 0 8.78-5.43l-26.47-30a9.08 9.08 0 0 1 2.54-1.6l15.15 37.03Zm8.78-5.43a28.67 28.67 0 0 0 7.13-9.68L104 205.84a11.34 11.34 0 0 1 2.81-3.76l26.47 30Zm7.13-9.68a29.36 29.36 0 0 0 2.6-12.2h-40c0-1.08.2-2.64.99-4.36l36.41 16.56Zm2.6-12.2v-28.72h-40v28.72h40Zm-20-8.72h11.67v-40H123v40Zm-8.33-20V229h40v-47.52h-40Zm20 27.52h-11.6v40h11.6v-40Zm8.4 20v-8.8h-40v8.8h40Zm-39.7-12.23a11.9 11.9 0 0 1 2.2-5.2l31.65 24.46a28.16 28.16 0 0 0 5.56-12.4l-39.41-6.86Zm2.48-5.55c.46-.57.84-.85.94-.92l22.49 33.08a35.45 35.45 0 0 0 7.66-7l-31.1-25.16Zm1.4-1.23.24-.13-.08.03 12.28 38.06c3.13-1 6.21-2.4 9.12-4.26l-21.56-33.7Zm.73-.28c.03 0 .1-.03.22-.04.12-.02.25-.03.4-.03v40c3.61 0 7.14-.53 10.53-1.51l-11.15-38.42Zm.61-.07a3.03 3.03 0 0 1 .94.2l-14.68 37.2a37.27 37.27 0 0 0 13.74 2.6v-40Zm1.12.27a4.25 4.25 0 0 1 1.43.95l-28.29 28.28c3.4 3.4 7.4 6.04 11.83 7.84l15.03-37.07Zm1.67 1.2c.2.2.33.38.42.51l.07.12-36.95 15.32a37.73 37.73 0 0 0 7.69 11.83l28.77-27.78Zm.7 1.17c.16.4.03.34.03-.48h-40c0 4.83.73 9.84 2.6 14.72l37.37-14.24Zm.03-.48v-30.32h-40v30.32h40Zm53.63 3.44c0-.41.04-1.03.24-1.77.2-.75.5-1.5.92-2.21l34.47 20.28a31.9 31.9 0 0 0 4.37-16.3h-40Zm1.06-3.82a6.79 6.79 0 0 1 2.03-2.25l21.97 33.42a33.28 33.28 0 0 0 10.67-11.21l-34.67-19.96Zm2.03-2.25c.32-.21.26-.08-.5.1l9.7 38.81a41.44 41.44 0 0 0 12.77-5.49l-21.97-33.42Zm-.6.13c-.7.18-1.73.34-3.21.34v40c4.38 0 8.78-.48 13.1-1.58l-9.9-38.76Zm-3.21.34a7.12 7.12 0 0 1-2.27-.26l-13.55 37.64a46.52 46.52 0 0 0 15.82 2.62v-40Zm-2.27-.26c-.97-.35-1.22-.59-1.08-.48l-24.99 31.24a43.5 43.5 0 0 0 12.52 6.88l13.55-37.64Zm-1.08-.48c-.12-.1-.11-.1-.03-.01.08.09.22.27.37.53l-34.47 20.28a38.16 38.16 0 0 0 9.14 10.44l24.99-31.24Zm.68 1.12c.03.05.45.85.58 2.29l-39.83 3.62a34.05 34.05 0 0 0 4.1 13.17l35.15-19.08Zm-17.03 23.97 11.04-1.28-4.6-39.74-11.05 1.28 4.6 39.74Zm-11.26-21.15a25.5 25.5 0 0 0 4.31 14.21l33.29-22.18a14.5 14.5 0 0 1 2.4 7.97h-40Zm4.62 14.65a29.67 29.67 0 0 0 7.52 7.38l22.59-33.02c.74.51 1.7 1.34 2.56 2.58l-32.67 23.06Zm7.52 7.38a33.74 33.74 0 0 0 8.41 4.14l12.65-37.94c.31.1.87.33 1.53.78l-22.59 33.02Zm9.34 4.43c3.02.84 6.17 1.3 9.4 1.3v-40c.55 0 1.03.08 1.39.18l-10.79 38.52Zm9.4 1.3c2.67 0 5.4-.28 8.1-.9l-8.86-39c.37-.09.64-.1.76-.1v40Zm8.1-.9c2.65-.6 5.55-1.57 8.42-3.19l-19.61-34.86a8.96 8.96 0 0 1 2.33-.95l8.87 39Zm7.97-2.94a25.68 25.68 0 0 0 9.17-8.06l-32.89-22.76a14.36 14.36 0 0 1 5-4.54l18.72 35.36Zm8.58-7.25a23.83 23.83 0 0 0 4.95-14.59h-40c0-3.33 1.08-6.86 3.34-9.8l31.7 24.4Zm4.95-14.59c0-10.14-6.09-17.23-12.45-20.76l-19.43 34.96a15.56 15.56 0 0 1-5.37-5.06 16.7 16.7 0 0 1-2.75-9.14h40Zm-12.45-20.76a43.97 43.97 0 0 0-9.97-3.92l-10.37 38.64c.54.14.87.26 1.04.32.18.07.11.06-.13-.08l19.43-34.96Zm-9.54-3.8a143.7 143.7 0 0 0-8.27-2.14l-8.93 39c2.23.5 4.21 1.02 5.97 1.53l11.23-38.38Zm-7.79-2.02a16.74 16.74 0 0 1-3.22-1.16l-17.53 35.95c3.48 1.7 7.12 3.01 10.86 3.97l9.9-38.76Zm-3.22-1.16a4.54 4.54 0 0 1 1.08.92l-30.57 25.8c3.4 4.02 7.5 7.06 11.96 9.23l17.53-35.95Zm1.08.92a11.37 11.37 0 0 1 2.14 3.82c.37 1.17.42 2.03.42 2.36h-40c0 6.31 1.7 13.5 6.87 19.62l30.57-25.8Zm2.56 6.18c0 1.4-.35 2.77-.92 3.9L128.5 180.3a31.12 31.12 0 0 0-3.31 13.98h40Zm-.92 3.9a7.84 7.84 0 0 1-2.12 2.7l-24.33-31.75c-3.7 2.83-7 6.53-9.32 11.17l35.77 17.88Zm-2.04 2.63c-.33.26-.55.38-.61.4l.35-.12-11.65-38.26a38.93 38.93 0 0 0-12.58 6.35l24.49 31.63Zm-.26.28c.08-.02.93-.25 2.9-.25v-40c-4.76 0-9.73.52-14.55 1.99l11.65 38.26Zm2.9-.25c1.52 0 1.84.23 1.43.06l14.57-37.25a43.77 43.77 0 0 0-16-2.81v40Zm1.91.25c.33.12.45.19.42.17a3.24 3.24 0 0 1-.51-.38l26.27-30.16a39.4 39.4 0 0 0-12.57-7.25l-13.6 37.62Zm.43.23c-.05-.04-.7-.59-1.32-1.79l35.55-18.34a34.44 34.44 0 0 0-9-10.91l-25.23 31.04Zm-1.32-1.79c.04.07-.4-.75-.58-2.32l39.75-4.42a33.36 33.36 0 0 0-3.62-11.6l-35.55 18.34Zm16.89-24.38-10.56 1.28 4.81 39.7 10.56-1.28-4.81-39.7Zm11.85 21.13c0-5.09-1.64-9.26-3.3-12.2l-34.86 19.6a15.17 15.17 0 0 1-1.84-7.4h40ZM192 185.36a27.6 27.6 0 0 0-6.84-9.01l-26.34 30.1a12.44 12.44 0 0 1-3.01-4.05l36.2-17.04Zm-6.37-8.58a29.39 29.39 0 0 0-9.4-5.84l-14.57 37.25a10.7 10.7 0 0 1-3.32-2.17l27.3-29.24Zm-8.71-5.56a30.3 30.3 0 0 0-12.13-2.46v40c-.78 0-2.17-.14-3.82-.86l15.95-36.68Zm-12.13-2.46a30.8 30.8 0 0 0-16.4 4.45l21.1 33.98a9.5 9.5 0 0 1-4.7 1.57v-40Zm-16.66 4.62c-6.22 4-11.42 11.13-11.42 20.58h40c0 2.6-.68 5.48-2.26 8.14a14.94 14.94 0 0 1-4.69 4.92l-21.63-33.64Zm-11.42 20.58c0 9.88 5.76 17.13 12.44 20.84l19.43-34.96c1.49.82 3.69 2.43 5.49 5.22a16.54 16.54 0 0 1 2.64 8.9h-40Zm12.44 20.84a47 47 0 0 0 9.33 3.84l11.5-38.32c-.58-.17-.97-.31-1.22-.41-.25-.1-.3-.13-.18-.07l-19.43 34.96Zm9.77 3.96c2.27.63 4.71 1.27 7.32 1.94l9.9-38.76c-2.41-.61-4.61-1.2-6.61-1.74l-10.6 38.56Zm7.42 1.96c1.16.3 2 .63 2.59.95l18.6-35.42a51.55 51.55 0 0 0-11.5-4.33l-9.7 38.8Zm2.94 1.13a4.45 4.45 0 0 1-1.36-1.13l31.33-24.88a35.74 35.74 0 0 0-12.08-9.77l-17.89 35.78Zm-1.17-.9a9.7 9.7 0 0 1-2.36-5.71h40c0-6.24-1.61-13.43-6.69-19.63l-30.95 25.33Zm31.51-2.11v8.24h40v-8.24h-40Zm8.47-8.1c.79-.56 1.55-.9 2.17-1.11l12.65 37.94a31.61 31.61 0 0 0 8.25-4.15l-23.07-32.68Zm2.74-1.3c-.37.12-.56.15-.58.15l6.58 39.46c1.9-.32 3.74-.77 5.5-1.3l-11.5-38.3Zm-1.03.23c.09-.01.22-.03.38-.03v40c2.4 0 4.77-.23 7.1-.67l-7.48-39.3Zm.38-.03h-.24c.06 0 .28.03.64.13l-10.4 38.62c3.46.93 6.87 1.25 10 1.25v-40Zm.6.18.3.1c.18.09.46.21.8.41l-20.04 34.62a35.07 35.07 0 0 0 8.15 3.39l10.78-38.52Zm2.18 1.18c.53.36 1.32 1 2.12 1.99l-31.24 24.98a30.49 30.49 0 0 0 6.93 6.31L212.96 211Zm2.12 1.99c.17.22.42.57.67 1.07l-35.78 17.88c1.1 2.2 2.42 4.21 3.87 6.03L215.08 213Zm.67 1.07c.57 1.13.59 1.91.59 1.87l-40 .85a35.36 35.36 0 0 0 3.63 15.16l35.78-17.88Zm.6 2.3v-26.24h-40v26.24h40Zm-20-46.24h-6.25v40h6.24v-40Zm13.75 20v-6.88h-40v6.88h40Zm-17.17 12.92c1.6-.23 3.15-.56 4.64-.95l-10.3-38.66-.08.03.08-.02 5.66 39.6Zm5.82-1.3c2.55-.86 4.8-2 6.75-3.22l-21.2-33.92c.24-.15.84-.5 1.8-.81l12.65 37.94Zm6.8-3.25a31.26 31.26 0 0 0 9.43-9.12L181.7 167.2a8.8 8.8 0 0 1 2.55-2.56l21.3 33.86Zm9.43-9.12a37.4 37.4 0 0 0 4.08-7.94l-37.6-13.67c.12-.32.22-.53.27-.61.04-.09.04-.08-.03.04l33.28 22.18Zm3.9-7.48a33.1 33.1 0 0 0 2.12-8.15l-39.72-4.68c.08-.73.21-1.24.28-1.48l.08-.27 37.25 14.58Zm1.99-7.2c.07-.45.51-2.86.51-5.13h-40c0-.44.02-.8.03-1.01l.04-.54.04-.38-.08.48 39.46 6.58Zm-19.49 14.87h6.56v-40h-6.56v40Zm-13.43-19.49c.05 1.9.07 3.84.07 5.81h40c0-2.3-.03-4.58-.09-6.83l-39.98 1.02Zm.07 5.81c0 2.25.03 4.5.09 6.75l39.98-1.02c-.04-1.91-.07-3.82-.07-5.73h-40Zm20.08 26.24h11.04v-40H208.1v40Zm-8.96-20v8h40v-8h-40Zm20-12h-10.96v40h10.96v-40Zm-30.96 20.22c.16 14.63.24 23.04.24 25.46h40c0-2.7-.08-11.4-.24-25.9l-40 .44Zm.24 25.46c0 2.04.29 3.87.43 4.73l39.46-6.58.03.24a11.77 11.77 0 0 1 .08 1.61h-40Zm.43 4.73c.9 5.39 3.56 9.63 6.55 12.61l28.28-28.28a16.79 16.79 0 0 1 4.63 9.1l-39.46 6.57Zm5.95 11.98a23.55 23.55 0 0 0 14.85 7.49l4.42-39.76c3.27.36 7.16 1.9 10.21 5.25L194.8 232.5Zm14.85 7.49c2.43.27 4.87.27 7.3 0l-4.42-39.76c.51-.05 1.03-.05 1.54 0L209.65 240Zm7.19.01a34.4 34.4 0 0 0 6.67-1.36l-11.93-38.18c.56-.18.94-.23 1.07-.24l4.19 39.78Zm7.36-1.59 1.75-.6-12.65-37.95c-.65.21-1.48.5-2.42.83l13.32 37.72ZM53.63 320.68c7.84 0 15.92-2.6 22.3-8.98l-28.29-28.28a9.8 9.8 0 0 1 3.4-2.2 7.48 7.48 0 0 1 2.59-.54v40Zm22.48-9.16a36.03 36.03 0 0 0 9.38-17.72l-39.1-8.48c0 .02.06-.21.25-.59.2-.39.49-.78.83-1.13l28.64 27.92Zm-12.35-2.08 9.44 1.04 4.38-39.76-9.44-1.04-4.38 39.76Zm-8.07-22.32c-.16.92-.4 1.6-.67 2.14l35.77 17.88a47.62 47.62 0 0 0 4.3-13.06l-39.4-6.96Zm-.76 2.3.02-.03a.82.82 0 0 1 .05-.07l.05-.06c.01-.01.02-.02 0 0l26.58 29.89a39.27 39.27 0 0 0 9.25-12.17l-35.95-17.56Zm.15-.2.1-.08c-.03.02-.17.1-.45.2l13.8 37.55a40.83 40.83 0 0 0 13.08-7.72l-26.53-29.94Zm-.48.17c.14-.05-.36.17-1.85.17v40a45.1 45.1 0 0 0 15.9-2.71L54.6 289.39Zm-1.85.17a4.28 4.28 0 0 1-1.69-.24l-15.67 36.8a44.01 44.01 0 0 0 17.36 3.44v-40Zm-1.56-.19a2.33 2.33 0 0 1-.83-.55l-28.99 27.56a42.29 42.29 0 0 0 13.9 9.69l15.92-36.7Zm-.66-.37a4.7 4.7 0 0 1-.9-1.5L12.5 302.34a44.63 44.63 0 0 0 8.7 13.84L50.53 289Zm-.74-1.1c-.2-.56-.4-1.38-.4-2.66h-40c0 5.66.92 11.28 2.95 16.7l37.45-14.04Zm-.4-2.66c0-1.1.17-1.88.4-2.5L12.34 268.7a46.89 46.89 0 0 0-2.95 16.54h40Zm.3-2.2c.28-.75.56-1.1.75-1.3l-28.99-27.56c-3.97 4.17-6.94 9-9 14.23l37.23 14.62Zm.75-1.3c.25-.26.57-.51 1.12-.76l-16.5-36.44a43.33 43.33 0 0 0-13.6 9.64l28.98 27.56Zm.99-.7c.11-.06.47-.2 1.32-.2v-40a42.96 42.96 0 0 0-17.57 3.64l16.25 36.56Zm1.32-.2c.98 0 1.29.15 1.2.12l14.72-37.2a43.03 43.03 0 0 0-15.92-2.92v40Zm1.33.17c.2.07.28.13.3.14.02.01.01 0 0-.01l27.46-29.08a40.63 40.63 0 0 0-13.3-8.35l-14.47 37.3Zm.71.52c.02 0 .09.06.23.33l35.77-17.88a40.9 40.9 0 0 0-9.37-12.3l-26.63 29.85Zm.47.8c.16.3.32.72.43 1.42l39.55-5.98a44.19 44.19 0 0 0-4.69-14.26l-35.3 18.82Zm18.33-21.48-9.36.88 3.75 39.82 9.36-.88-3.75-39.82Zm12.3 17.84c-1.04-6.95-3.9-13.94-9.47-19.66L47.8 286.97a6.47 6.47 0 0 1-1.23-1.77c-.24-.5-.26-.76-.24-.6l39.57-5.91Zm-9.47-19.66c-6.48-6.64-14.78-9.31-22.8-9.31v40c-.31 0-1.22-.05-2.45-.53a9.63 9.63 0 0 1-3.38-2.22l28.63-27.94Zm-22.8-9.31c-4.6 0-9.7.85-14.62 3.31l17.89 35.78a7.77 7.77 0 0 1-3.26.91v-40ZM39.5 252.8a31.35 31.35 0 0 0-11.18 8.75l31.11 25.14a8.66 8.66 0 0 1-3.02 2.35L39.5 252.8ZM28 261.93a34.38 34.38 0 0 0-5.77 11.57l38.46 11c-.09.29-.35 1-.98 1.81l-31.7-24.38Zm-5.77 11.57a42.34 42.34 0 0 0-1.57 11.66h40c0-.66.07-.84.03-.67L22.24 273.5Zm-1.57 11.66c0 4 .53 8.03 1.75 12l38.25-11.69.01.04-.01-.35h-40Zm1.8 12.16a34.67 34.67 0 0 0 6.08 11.45l31.11-25.14c.6.75.87 1.4.97 1.7l-38.16 11.99Zm6.08 11.45a32.2 32.2 0 0 0 10.7 8.6l17.88-35.78c.95.48 1.85 1.2 2.53 2.04l-31.11 25.14Zm10.7 8.6a31.97 31.97 0 0 0 14.38 3.31v-40c.66 0 1.97.15 3.5.91l-17.89 35.78Zm41.2-4.86A23.55 23.55 0 0 0 95.3 320l4.41-39.76c3.27.37 7.16 1.9 10.22 5.25L80.44 312.5ZM95.3 320c2.42.27 4.87.27 7.3 0l-4.42-39.76c.5-.05 1.02-.05 1.53 0L95.3 320Zm7.18.01a34.4 34.4 0 0 0 6.67-1.36l-11.93-38.18c.57-.18.95-.23 1.07-.24l4.19 39.78Zm7.36-1.59 1.75-.6-12.65-37.95c-.65.21-1.47.5-2.41.83l13.31 37.72Zm-24.58-19.58v8.24h40v-8.24h-40Zm8.47-8.1a8.06 8.06 0 0 1 1.97-1.02l13.21 37.76a31.94 31.94 0 0 0 7.89-4.06l-23.07-32.68Zm2.83-1.3c-.38.12-.56.15-.58.15l6.57 39.46a44.7 44.7 0 0 0 5.5-1.3l-11.5-38.3Zm-1.04.23c.1-.01.23-.03.38-.03v40c2.4 0 4.77-.23 7.1-.67l-7.48-39.3Zm.38-.03h-.24c.06 0 .29.03.64.13l-10.4 38.62c3.46.93 6.87 1.25 10 1.25v-40Zm.6.18.3.1c.18.08.46.21.8.41l-20.04 34.62a35.07 35.07 0 0 0 8.15 3.39l10.79-38.52Zm2.18 1.18c.4.26.96.71 1.54 1.38l-30.23 26.2a32.23 32.23 0 0 0 6.5 5.7L98.68 291Zm2.04 1.99c.18.22.42.57.67 1.07l-35.77 17.88c1.1 2.2 2.41 4.21 3.87 6.03L100.72 293Zm.67 1.07c.57 1.13.6 1.92.59 1.87l-40 .86a35.37 35.37 0 0 0 3.64 15.15l35.77-17.88Zm.6 2.3V245.4h-40v50.96h40Zm-20-30.96h11.83v-40H81.98v40Zm-8.17-20V253.24h40V245.4h-40Zm0 8.18c.06 3.02.08 6.29.08 9.82h40c0-3.72-.02-7.22-.08-10.5l-40 .68Zm.09 10.12c.05 3.47.07 7 .07 10.58h40c0-3.78-.02-7.5-.08-11.18l-40 .6Zm.08 10.87c.05 3.6.07 6.89.07 9.87h40c0-3.2-.02-6.7-.08-10.45l-40 .58Zm.07 9.87V292.12h40V284.44h-40Zm0 7.68V295.8h40V292.11h-40Zm0 3.68c0 2.05.3 3.87.44 4.73l39.45-6.58.03.24a11.7 11.7 0 0 1 .08 1.61h-40Zm.44 4.73a23.2 23.2 0 0 0 6.54 12.61l28.29-28.28a16.79 16.79 0 0 1 4.62 9.1l-39.45 6.57Zm29.96-58.57v10.56h40v-10.56h-40Zm20-9.44h-13.68v40h13.68v-40Zm6.32 20v-10.56h-40v10.56h40Zm-20 9.44h13.68v-40h-13.68v40ZM123.42 289h-11.6v40h11.6v-40Zm8.4 20v-47.12h-40V309h40Zm-20-27.12h11.6v-40h-11.6v40Zm-8.4-20V309h40v-47.12h-40Zm51.9 58.8c7.84 0 15.93-2.6 22.3-8.98l-28.29-28.28a9.8 9.8 0 0 1 3.4-2.2 7.48 7.48 0 0 1 2.59-.54v40Zm22.48-9.16a36.03 36.03 0 0 0 9.38-17.72l-39.09-8.48c0 .02.05-.21.24-.59.2-.39.49-.78.83-1.13l28.64 27.92Zm-12.35-2.08 9.44 1.04 4.38-39.76-9.44-1.04-4.38 39.76Zm-8.07-22.32c-.16.92-.4 1.6-.67 2.14l35.78 17.88a47.63 47.63 0 0 0 4.28-13.06l-39.39-6.96Zm-.75 2.3.01-.03a1.03 1.03 0 0 1 .1-.13c.01-.01.02-.02 0 0l26.58 29.89a39.28 39.28 0 0 0 9.25-12.17l-35.94-17.56Zm.15-.2.1-.08c-.04.02-.18.1-.46.2l13.8 37.55a40.84 40.84 0 0 0 13.08-7.72l-26.53-29.94Zm-.49.17c.14-.05-.36.17-1.85.17v40a45.1 45.1 0 0 0 15.9-2.71l-14.05-37.46Zm-1.85.17a4.28 4.28 0 0 1-1.69-.24l-15.67 36.8a44.01 44.01 0 0 0 17.36 3.44v-40Zm-1.56-.19a2.33 2.33 0 0 1-.83-.55l-28.99 27.56a42.29 42.29 0 0 0 13.9 9.69l15.92-36.7Zm-.66-.37a4.7 4.7 0 0 1-.9-1.5l-37.13 14.85a44.61 44.61 0 0 0 8.7 13.84L152.22 289Zm-.74-1.1c-.2-.56-.4-1.38-.4-2.66h-40c0 5.66.92 11.28 2.95 16.7l37.45-14.04Zm-.4-2.66c0-1.1.17-1.88.4-2.5l-37.45-14.04a46.87 46.87 0 0 0-2.95 16.54h40Zm.3-2.2c.28-.75.56-1.1.75-1.3l-28.98-27.56c-3.98 4.17-6.95 9-9 14.23l37.22 14.62Zm.75-1.3c.25-.26.57-.51 1.12-.76l-16.5-36.44a43.33 43.33 0 0 0-13.6 9.64l28.98 27.56Zm.99-.7c.12-.06.47-.2 1.32-.2v-40a42.96 42.96 0 0 0-17.57 3.64l16.25 36.56Zm1.32-.2c.98 0 1.29.15 1.2.12l14.72-37.2a43.03 43.03 0 0 0-15.92-2.92v40Zm1.33.17c.2.07.28.13.3.14.02.01.01 0 0-.01l27.46-29.08a40.63 40.63 0 0 0-13.3-8.35l-14.46 37.3Zm.71.52c.02 0 .1.06.23.33l35.78-17.88a40.9 40.9 0 0 0-9.38-12.3l-26.63 29.85Zm.47.8c.16.3.33.72.43 1.42l39.55-5.98a44.17 44.17 0 0 0-4.69-14.26l-35.3 18.82Zm18.33-21.48-9.36.88 3.75 39.82 9.36-.88-3.75-39.82Zm12.3 17.84c-1.04-6.95-3.9-13.94-9.47-19.66l-28.63 27.94a6.47 6.47 0 0 1-1.23-1.77c-.24-.5-.26-.76-.24-.6l39.57-5.91Zm-9.47-19.66c-6.48-6.64-14.78-9.31-22.8-9.31v40c-.3 0-1.22-.05-2.45-.53a9.63 9.63 0 0 1-3.38-2.22l28.63-27.94Zm-22.8-9.31c-4.6 0-9.7.85-14.62 3.31l17.89 35.78a7.77 7.77 0 0 1-3.26.91v-40Zm-14.13 3.08a31.36 31.36 0 0 0-11.18 8.75l31.12 25.14a8.66 8.66 0 0 1-3.03 2.35l-16.91-36.24Zm-11.48 9.13a34.35 34.35 0 0 0-5.77 11.57l38.46 11c-.09.29-.35 1-.98 1.81l-31.7-24.38Zm-5.77 11.57a42.31 42.31 0 0 0-1.57 11.66h40c0-.66.07-.84.03-.67l-38.46-10.99Zm-1.57 11.66c0 4 .53 8.03 1.75 12l38.25-11.69.01.04-.01-.35h-40Zm1.8 12.16a34.68 34.68 0 0 0 6.08 11.45l31.11-25.14c.6.75.88 1.4.97 1.7l-38.16 11.99Zm6.08 11.45a32.2 32.2 0 0 0 10.7 8.6l17.88-35.78c.95.48 1.85 1.2 2.53 2.04l-31.11 25.14Zm10.7 8.6a31.96 31.96 0 0 0 14.38 3.31v-40c.66 0 1.97.15 3.5.91l-17.89 35.78Zm91.7-19.9L218.5 277.4l-32.7 23.06 14.17 20.08 32.69-23.06Zm-44.9-22.42-6.24 6.48 28.81 27.74 6.24-6.48-28.81-27.74ZM175.9 295.4V309h40v-13.6h-40Zm20-6.4h-11.76v40h11.76v-40Zm8.24 20v-63.6h-40V309h40Zm-20-43.6h11.76v-40h-11.76v40Zm-8.24-20v37.28h40V245.4h-40Zm34.86 50.67 19.12-21.2-29.7-26.78-19.13 21.2 29.7 26.78Zm4.26-14.59h13.44v-40h-13.44v40ZM213.7 248l-19.2 21.04L224.04 296l19.2-21.04L213.69 248Zm-20.25 46.76 20.48 26.48 31.64-24.48-20.48-26.48-31.64 24.48Zm36.3-5.76H216.3v40h13.44v-40Zm20.23 0h-10v40h10v-40Zm10 20v-11.36h-40V309h40Zm-20 8.64h10v-40h-10v40Zm-10-20V309h40v-11.36h-40ZM150 45.5c0-2.82.92-5.99 3.2-8.78A15.9 15.9 0 0 1 165.5 31v40c17.1 0 24.5-15.36 24.5-25.5h-40ZM165.5 31c5.74 0 9.98 2.9 12.3 5.72a13.86 13.86 0 0 1 3.2 8.78h-40c0 10.14 7.4 25.5 24.5 25.5V31ZM181 45.5c0 2.82-.92 5.99-3.2 8.78A15.9 15.9 0 0 1 165.5 60V20C148.4 20 141 35.36 141 45.5h40ZM165.5 60a15.9 15.9 0 0 1-12.3-5.72 13.86 13.86 0 0 1-3.2-8.78h40c0-10.14-7.4-25.5-24.5-25.5v40Z" fill="url(#a)" mask="url(#b)"/><defs><linearGradient id="a" x1="140.5" y1="9" x2="140.5" y2="329" gradientUnits="userSpaceOnUse"><stop stop-color="#F78FDA"/><stop offset="1" stop-color="#A700F5"/></linearGradient></defs></svg>