<svg width="370" height="370" viewBox="0 0 370 370" fill="none" xmlns="http://www.w3.org/2000/svg">
    <g filter="url(#filter0_d_13378_1635)">
        <path
            d="M280.459 280.459C333.18 227.739 333.18 142.261 280.459 89.5406C227.739 36.8198 142.261 36.8198 89.5406 89.5406C36.8198 142.261 36.8198 227.739 89.5406 280.459C142.261 333.18 227.739 333.18 280.459 280.459Z"
            fill="#FEE475" />
        <path
            d="M278.018 278.019C329.391 226.647 329.391 143.355 278.018 91.9826C226.646 40.61 143.354 40.61 91.9818 91.9826C40.6092 143.355 40.6092 226.647 91.9818 278.019C143.354 329.392 226.646 329.392 278.018 278.019Z"
            fill="#FED425" />
        <path d="M313.237 214.287L214.289 313.235C263.414 302.063 302.057 263.412 313.237 214.287Z" fill="#FFEC45" />
        <path
            d="M120.4 70.4188L70.4217 120.397C64.9134 130.141 60.5921 140.646 57.7061 151.732L151.735 57.7031C140.649 60.5892 130.144 64.9105 120.4 70.4188Z"
            fill="#FFEC45" />
        <path
            d="M278.279 92.2519L92.2532 278.27C104.721 290.667 119.663 300.551 136.265 307.177L307.186 136.256C300.56 119.654 290.676 104.704 278.279 92.2441V92.2519Z"
            fill="#FFEC45" />
        <path
            d="M260.947 77.6191L77.6211 260.945C79.7546 263.963 82.0045 266.888 84.3862 269.712L269.706 84.3843C266.882 82.0103 263.957 79.7604 260.939 77.6191H260.947Z"
            fill="#FFEC45" />
        <path
            d="M187.586 282.753C240.228 282.753 282.902 240.078 282.902 187.436C282.902 134.794 240.228 92.1191 187.586 92.1191C134.943 92.1191 92.2686 134.794 92.2686 187.436C92.2686 240.078 134.943 282.753 187.586 282.753Z"
            fill="#FFEC45" />
        <path
            d="M256.269 248.294C291.22 208.929 287.641 148.684 248.275 113.733C208.91 78.7823 148.664 82.3612 113.714 121.727C78.7631 161.092 82.342 221.337 121.708 256.288C161.073 291.239 221.318 287.66 256.269 248.294Z"
            fill="#FEB724" />
        <g style="mix-blend-mode:soft-light">
            <path
                d="M185.002 55.1747C258.689 55.1747 318.551 114.23 319.932 187.584C319.948 186.722 319.994 185.861 319.994 184.992C319.994 110.444 259.558 50 185.002 50C110.446 50 50.002 110.444 50.002 185C50.002 185.869 50.0485 186.722 50.064 187.591C51.4527 114.23 111.307 55.1747 185.002 55.1747Z"
                fill="white" />
        </g>
        <path
            d="M185.311 280.622C211.625 280.622 232.97 259.285 232.97 232.962C232.97 206.639 211.634 185.302 185.311 185.302C158.988 185.302 137.651 163.966 137.651 137.643C137.651 111.32 158.996 90 185.311 90C132.673 90 90 132.673 90 185.311C90 237.948 132.673 280.622 185.311 280.622Z"
            fill="#FFD339" />
        <path
            d="M185.311 90C158.996 90 137.651 111.337 137.651 137.651C137.651 163.966 158.988 185.311 185.311 185.311C211.634 185.311 232.97 206.648 232.97 232.97C232.97 259.293 211.634 280.63 185.311 280.63C237.948 280.63 280.622 237.957 280.622 185.319C280.622 132.682 237.948 90 185.311 90Z"
            fill="#FFAA2A" />
        <path
            d="M199.67 137.247C199.67 145.405 193.064 152.011 184.906 152.011C176.747 152.011 170.141 145.405 170.141 137.247C170.141 129.088 176.747 122.482 184.906 122.482C193.064 122.482 199.67 129.097 199.67 137.247Z"
            fill="#FFD339" />
        <path
            d="M199.661 236.439C201.586 228.516 196.722 220.532 188.798 218.608C180.874 216.683 172.891 221.547 170.966 229.471C169.042 237.395 173.906 245.378 181.83 247.303C189.753 249.227 197.737 244.363 199.661 236.439Z"
            fill="#FFAA2A" />
        <path
            d="M94.8598 190.175C94.8598 137.536 137.537 94.8583 190.177 94.8583C215.181 94.8583 237.928 104.502 254.926 120.251C237.517 101.461 212.637 89.6836 185.002 89.6836C132.363 89.6836 89.6851 132.361 89.6851 185.001C89.6851 212.635 101.462 237.516 120.252 254.925C104.503 237.919 94.8598 215.18 94.8598 190.175Z"
            fill="#FFAA2A" />
        <path
            d="M275.123 179.844C275.123 232.483 232.445 275.161 179.806 275.161C154.801 275.161 132.054 265.518 115.056 249.769C132.465 268.559 157.346 280.336 184.98 280.336C237.62 280.336 280.297 237.658 280.297 185.019C280.297 157.384 268.52 132.504 249.73 115.095C265.479 132.1 275.123 154.84 275.123 179.844Z"
            fill="#FFD339" />
        <path opacity="0.1"
            d="M278.279 92.2519L92.2532 278.27C104.721 290.667 119.663 300.551 136.265 307.177L307.186 136.256C300.56 119.654 290.676 104.704 278.279 92.2441V92.2519Z"
            fill="#FFEC45" />
        <path opacity="0.1"
            d="M260.947 77.6191L77.6211 260.945C79.7546 263.963 82.0045 266.888 84.3862 269.712L269.706 84.3843C266.882 82.0103 263.957 79.7604 260.939 77.6191H260.947Z"
            fill="#FFEC45" />
    </g>
    <defs>
        <filter id="filter0_d_13378_1635" x="0" y="0" width="370" height="370" filterUnits="userSpaceOnUse"
            color-interpolation-filters="sRGB">
            <feFlood flood-opacity="0" result="BackgroundImageFix" />
            <feColorMatrix in="SourceAlpha" type="matrix" values="0 0 0 0 0 0 0 0 0 0 0 0 0 0 0 0 0 0 127 0"
                result="hardAlpha" />
            <feOffset />
            <feGaussianBlur stdDeviation="25" />
            <feComposite in2="hardAlpha" operator="out" />
            <feColorMatrix type="matrix" values="0 0 0 0 0 0 0 0 0 0 0 0 0 0 0 0 0 0 0.5 0" />
            <feBlend mode="normal" in2="BackgroundImageFix" result="effect1_dropShadow_13378_1635" />
            <feBlend mode="normal" in="SourceGraphic" in2="effect1_dropShadow_13378_1635" result="shape" />
        </filter>
    </defs>
</svg>