<svg width="270" height="270" viewBox="0 0 270 270" fill="none" xmlns="http://www.w3.org/2000/svg">
    <path
        d="M230.459 230.459C283.18 177.739 283.18 92.2614 230.459 39.5406C177.739 -13.1802 92.2614 -13.1802 39.5406 39.5406C-13.1802 92.2614 -13.1802 177.739 39.5406 230.459C92.2614 283.18 177.739 283.18 230.459 230.459Z"
        fill="#FEE475" />
    <path
        d="M228.018 228.019C279.391 176.647 279.391 93.3551 228.018 41.9826C176.646 -9.39002 93.3544 -9.39002 41.9818 41.9826C-9.39075 93.3551 -9.39075 176.647 41.9818 228.019C93.3544 279.392 176.646 279.392 228.018 228.019Z"
        fill="#FED425" />
    <path d="M263.237 164.287L164.289 263.235C213.414 252.063 252.057 213.412 263.237 164.287Z" fill="#FFEC45" />
    <path
        d="M70.3999 20.4188L20.4217 70.397C14.9134 80.1412 10.5921 90.6458 7.70605 101.732L101.735 7.70312C90.6488 10.5892 80.1442 14.9105 70.3999 20.4188Z"
        fill="#FFEC45" />
    <path
        d="M228.279 42.2519L42.2532 228.27C54.7206 240.667 69.6628 250.551 86.2653 257.177L257.186 86.2563C250.56 69.6538 240.676 54.7038 228.279 42.2441V42.2519Z"
        fill="#FFEC45" />
    <path
        d="M210.947 27.6191L27.6211 210.945C29.7546 213.963 32.0045 216.888 34.3862 219.712L219.706 34.3843C216.882 32.0103 213.957 29.7604 210.939 27.6191H210.947Z"
        fill="#FFEC45" />
    <path
        d="M137.586 232.753C190.228 232.753 232.902 190.078 232.902 137.436C232.902 84.794 190.228 42.1191 137.586 42.1191C84.9434 42.1191 42.2686 84.794 42.2686 137.436C42.2686 190.078 84.9434 232.753 137.586 232.753Z"
        fill="#FFEC45" />
    <path
        d="M206.269 198.294C241.22 158.929 237.641 98.6837 198.275 63.733C158.91 28.7823 98.6645 32.3612 63.7138 71.7267C28.7631 111.092 32.342 171.337 71.7075 206.288C111.073 241.239 171.318 237.66 206.269 198.294Z"
        fill="#FEB724" />
    <g style="mix-blend-mode:soft-light">
        <path
            d="M135.002 5.17471C208.689 5.17471 268.551 64.23 269.932 137.584C269.948 136.722 269.994 135.861 269.994 134.992C269.994 60.444 209.558 0 135.002 0C60.4459 0 0.00195312 60.444 0.00195312 135C0.00195312 135.869 0.0485022 136.722 0.0640186 137.591C1.45273 64.23 61.3071 5.17471 135.002 5.17471Z"
            fill="white" />
    </g>
    <path
        d="M135.311 230.622C161.625 230.622 182.97 209.285 182.97 182.962C182.97 156.639 161.634 135.302 135.311 135.302C108.988 135.302 87.6512 113.966 87.6512 87.6427C87.6512 61.3199 108.996 40 135.311 40C82.6735 40 40 82.6735 40 135.311C40 187.948 82.6735 230.622 135.311 230.622Z"
        fill="#FFD339" />
    <path
        d="M135.311 40C108.996 40 87.6511 61.3367 87.6511 87.6512C87.6511 113.966 108.988 135.311 135.311 135.311C161.634 135.311 182.97 156.648 182.97 182.97C182.97 209.293 161.634 230.63 135.311 230.63C187.948 230.63 230.622 187.957 230.622 135.319C230.622 82.6819 187.948 40 135.311 40Z"
        fill="#FFAA2A" />
    <path
        d="M149.67 87.2469C149.67 95.4053 143.064 102.011 134.906 102.011C126.747 102.011 120.141 95.4053 120.141 87.2469C120.141 79.0885 126.747 72.4824 134.906 72.4824C143.064 72.4824 149.67 79.0969 149.67 87.2469Z"
        fill="#FFD339" />
    <path
        d="M149.661 186.439C151.586 178.516 146.722 170.532 138.798 168.608C130.874 166.683 122.891 171.547 120.966 179.471C119.042 187.395 123.906 195.378 131.83 197.303C139.753 199.227 147.737 194.363 149.661 186.439Z"
        fill="#FFAA2A" />
    <path
        d="M44.8598 140.175C44.8598 87.536 87.5375 44.8583 140.177 44.8583C165.181 44.8583 187.928 54.5017 204.926 70.2508C187.517 51.4605 162.637 39.6836 135.002 39.6836C82.3628 39.6836 39.6851 82.3613 39.6851 135.001C39.6851 162.635 51.462 187.516 70.2523 204.925C54.5032 187.919 44.8598 165.18 44.8598 140.175Z"
        fill="#FFAA2A" />
    <path
        d="M225.123 129.844C225.123 182.483 182.445 225.161 129.806 225.161C104.801 225.161 82.0541 215.518 65.0559 199.769C82.4653 218.559 107.346 230.336 134.98 230.336C187.62 230.336 230.297 187.658 230.297 135.019C230.297 107.384 218.52 82.5038 199.73 65.0945C215.479 82.1004 225.123 104.84 225.123 129.844Z"
        fill="#FFD339" />
    <path opacity="0.1"
        d="M228.279 42.2519L42.2532 228.27C54.7206 240.667 69.6628 250.551 86.2653 257.177L257.186 86.2563C250.56 69.6538 240.676 54.7038 228.279 42.2441V42.2519Z"
        fill="#FFEC45" />
    <path opacity="0.1"
        d="M210.947 27.6191L27.6211 210.945C29.7546 213.963 32.0045 216.888 34.3862 219.712L219.706 34.3843C216.882 32.0103 213.957 29.7604 210.939 27.6191H210.947Z"
        fill="#FFEC45" />
</svg>